<?xml version="1.0" standalone="no"?>
<!DOCTYPE svg PUBLIC "-//W3C//DTD SVG 1.1//EN" "http://www.w3.org/Graphics/SVG/1.1/DTD/svg11.dtd" >
<svg xmlns="http://www.w3.org/2000/svg">
<metadata>Generated by IcoMoon</metadata>
<defs>
<font id="icomoon" horiz-adv-x="1024">
<font-face units-per-em="1024" ascent="960" descent="-64" />
<missing-glyph horiz-adv-x="1024" />
<glyph unicode="&#x20;" horiz-adv-x="512" d="" />
<glyph unicode="&#xe900;" glyph-name="tz-stop" d="M512 0c247.424 0 448 200.576 448 448s-200.576 448-448 448c-247.424 0-448-200.576-448-448s200.576-448 448-448v0zM512-64v0c-282.77 0-512 229.23-512 512s229.23 512 512 512c282.77 0 512-229.23 512-512s-229.23-512-512-512v0zM320 416h384c17.673 0 32 14.327 32 32s-14.327 32-32 32h-384c-17.673 0-32-14.327-32-32s14.327-32 32-32v0z" />
<glyph unicode="&#xe901;" glyph-name="tz-ongoing" d="M862.13-13.556h-696.24c-56.52 0-102.48 46.020-102.48 102.48l-4.020 685.38c0 56.7 45.96 102.66 102.48 102.66h50.34c16.56 0 30-13.44 30-30s-13.44-30-30-30h-50.34c-23.4 0-42.48-19.020-42.48-42.48l4.020-685.38c0-23.58 19.020-42.66 42.48-42.66h696.24c23.4 0 42.48 19.080 42.48 42.48l-4.020 685.38c0 23.64-19.080 42.66-42.54 42.66h-51.48c-16.62 0-30 13.44-30 30s13.38 30 30 30h51.48c56.52 0 102.54-45.96 102.54-102.48l4.020-685.38c0-56.64-45.96-102.66-102.48-102.66zM562.79 816.964h-118.14c-16.56 0-30 13.44-30 30s13.44 30 30 30h118.14c16.62 0 30-13.44 30-30s-13.38-30-30-30zM88.43 705.244h843.78v-60h-843.78v60zM325.97 778.984c-16.62 0-30 13.44-30 30v70.62c0 16.56 13.38 30 30 30 16.56 0 30-13.44 30-30v-70.62c0-16.56-13.44-30-30-30zM684.050 778.984c-16.62 0-30 13.44-30 30v70.62c0 16.56 13.38 30 30 30 16.56 0 30-13.44 30-30v-70.62c0-16.56-13.44-30-30-30zM350.917 165.126c-4.577 0-9.153 1.277-13.198 3.672-7.663 4.63-12.4 12.985-12.4 21.979v332.662c0 8.994 4.736 17.402 12.4 22.032 7.717 4.577 17.296 4.949 25.278 0.585l312.173-166.358c8.355-4.47 13.57-13.145 13.57-22.564 0-9.473-5.215-18.147-13.57-22.617l-312.173-166.358c-3.778-2.022-7.929-3.033-12.080-3.033v0zM376.567 480.812v-247.408l232.081 123.731-232.081 123.677z" />
<glyph unicode="&#xe902;" glyph-name="tz-review" d="M274.381-5.174h-159.432c-16.118 0-29.2 13.023-29.2 29.2v591.3c0 16.118 13.082 29.142 29.2 29.142h159.432c16.118 0 29.2-13.023 29.2-29.142v-591.3c0-16.177-13.082-29.2-29.2-29.2v0zM144.149 53.168h101.032v532.9h-101.032v-532.9zM679.91 9.952c-64.649 0-135.254 6.074-211.408 18.046l-155.694 19.856-46.37 12.731c-15.534 4.38-24.528 20.498-20.148 36.033 4.38 15.476 20.265 24.47 36.033 20.148l42.106-11.855 152.366-19.097c130.933-20.732 247.85-22.893 339.070-6.249 15.534 2.453 31.069-7.592 33.93-23.594 2.862-15.826-7.65-31.010-23.535-33.93-44.559-8.001-93.498-12.089-146.35-12.089zM910.24 472.246c-0.409 0-0.876 0-1.343 0.058-16.118 0.701-28.558 14.366-27.798 30.485l3.212 71.248c-0.058 14.834-13.14 27.915-29.258 27.915l-233.6-2.453c-7.709 0-15.009 3.037-20.498 8.41-5.548 5.49-8.702 12.965-8.702 20.79v118.026c-0.701 30.134-9.753 52.034-27.448 66.050-24.119 19.155-59.918 20.966-82.986 19.622l-0.818-39.186c-0.292-10.278-0.234-20.674-0.234-31.069 0.058-18.396 0.058-36.909-1.343-55.188-9.928-126.786-94.491-142.846-162.41-155.636-10.629-1.986-21.433-4.030-32.178-6.482-15.943-3.854-31.419 6.366-34.923 22.017-3.621 15.71 6.249 31.419 22.017 34.923 11.388 2.628 22.951 4.789 34.222 6.95 67.744 12.79 108.566 20.498 115.106 102.726 1.226 16.761 1.168 33.638 1.11 50.516 0 10.979-0.058 21.9 0.234 32.821l1.285 64.298c0.292 13.607 9.928 25.229 23.302 27.974 3.679 0.701 94.199 18.805 153.884-28.441 31.711-25.17 48.414-62.605 49.582-111.194v-89.235l204.108 2.161c48.589 0 87.892-39.303 87.892-87.6l-3.27-72.591c-0.701-15.71-13.666-27.915-29.142-27.915zM821.005 21.632c-13.49 0-25.638 9.461-28.499 23.185-3.329 15.768 6.833 31.244 22.601 34.573 36.033 7.534 45.61 27.623 49.348 57.758l3.446 81.585c0.701 16.060 14.425 27.565 30.485 27.915 16.118-0.759 28.616-14.366 27.915-30.426l-3.621-83.979c-7.767-62.138-39.887-98.346-95.601-110.026-2.044-0.467-4.088-0.584-6.074-0.584zM738.077 188.13c-7.709 0-15.126 3.095-20.615 8.585l-77.497 77.497c-11.446 11.388-11.446 29.842 0 41.289 11.388 11.388 29.842 11.388 41.289 0l56.823-56.882 144.073 144.131c11.446 11.388 29.901 11.388 41.289 0 11.446-11.446 11.446-29.901 0-41.289l-164.688-164.746c-5.49-5.49-12.906-8.585-20.674-8.585z" />
<glyph unicode="&#xe903;" glyph-name="tz-unreview" d="M778.246 814.044c40.938 0 74.051 33.171 74.051 74.051 0-40.88 33.171-74.051 74.051-74.051-40.88 0-74.051-33.171-74.051-74.051 0 40.88-33.113 74.051-74.051 74.051zM852.297 725.393c-8.059 0-14.6 6.541-14.6 14.542 0 32.821-26.63 59.51-59.451 59.51-8.059 0-14.6 6.599-14.6 14.6 0 8.059 6.541 14.6 14.6 14.6 32.821 0 59.451 26.63 59.451 59.451 0 8.001 6.541 14.6 14.6 14.6s14.6-6.599 14.6-14.6c0-32.821 26.689-59.451 59.451-59.451 8.059 0 14.6-6.541 14.6-14.6 0-8.001-6.541-14.6-14.6-14.6-32.762 0-59.451-26.689-59.451-59.51 0-8.001-6.541-14.542-14.6-14.542v0zM826.951 814.044c10.103-6.658 18.688-15.242 25.346-25.346 6.658 10.103 15.301 18.688 25.346 25.346-10.045 6.658-18.688 15.301-25.346 25.346-6.658-10.045-15.242-18.688-25.346-25.346v0zM275.83-12.024h-159.374c-16.118 0-29.2 13.023-29.2 29.2v591.3c0 16.118 13.082 29.2 29.2 29.2h159.374c16.118 0 29.2-13.082 29.2-29.2v-591.3c0-16.177-13.082-29.2-29.2-29.2v0zM145.657 46.376h100.915v532.9h-100.915v-532.9zM681.302 3.102c-64.59 0-135.254 6.074-211.35 18.046l-155.694 19.856-46.37 12.731c-15.534 4.38-24.586 20.498-20.206 36.033 4.38 15.476 20.79 24.47 36.033 20.148l42.106-11.855 152.366-19.097c130.991-20.674 247.908-22.834 339.129-6.249 15.71 2.394 31.069-7.65 33.93-23.594 2.862-15.826-7.65-31.010-23.535-33.93-44.559-8.001-93.44-12.089-146.409-12.089zM822.454 14.782c-13.549 0-25.696 9.461-28.499 23.185-3.329 15.826 6.774 31.302 22.601 34.573 35.974 7.534 45.61 27.682 49.348 57.758l19.856 436.89c-0.058 14.834-13.14 27.915-29.258 27.915l-233.25-2.453c-7.767 1.518-15.301 2.92-20.849 8.468-5.548 5.431-8.702 12.906-8.702 20.732v118.026c-0.759 30.134-9.753 52.034-27.448 66.050-24.061 19.155-59.743 21.024-82.986 19.622l-0.818-39.186c-0.292-10.395-0.234-20.849-0.234-31.302 0.058-18.338 0.058-36.734-1.343-55.071-9.928-126.67-94.491-142.613-162.41-155.519-10.629-1.986-21.433-4.030-32.178-6.424-15.826-3.621-31.361 6.249-34.923 21.958s6.307 31.419 22.017 34.923c11.446 2.628 22.951 4.789 34.222 6.95 67.744 12.79 108.566 20.498 115.048 102.667 1.285 16.761 1.226 33.58 1.168 50.399 0 11.038-0.058 22.017 0.234 33.054l1.285 64.182c0.292 13.666 9.928 25.287 23.302 28.032 3.738 0.876 94.082 18.98 153.884-28.499 31.711-25.112 48.355-62.546 49.582-111.135v-89.235l204.108 2.161c48.647 0 87.892-39.303 87.892-87.6l-20.031-440.57c-7.709-62.079-39.829-98.287-95.601-109.967-1.986-0.467-4.030-0.584-6.015-0.584z" />
<glyph unicode="&#xe904;" glyph-name="tz-bell" d="M826.886 115.712c-14.404 0-26 11.648-26 26v304.2c0 159.224-129.584 288.808-288.86 288.808s-288.912-129.584-288.912-288.808v-304.2c0-14.352-11.596-26-26-26-14.352 0-26 11.648-26 26v304.2c0 187.928 152.932 340.808 340.912 340.808 187.928 0 340.86-152.88 340.86-340.808v-304.2c0-14.352-11.648-26-26-26zM891.314 115.712h-758.628c-14.352 0-26 11.648-26 26s11.648 26 26 26h758.628c14.404 0 26-11.648 26-26s-11.596-26-26-26zM512.026 3.34c-76.336 0-138.424 62.036-138.424 138.372 0 14.352 11.648 26 26 26 14.404 0 26-11.648 26-26 0-47.632 38.792-86.372 86.424-86.372s86.372 38.74 86.372 86.372c0 14.352 11.596 26 26 26 14.352 0 26-11.648 26-26 0-76.336-62.088-138.372-138.372-138.372zM512.026 748.708c-40.092 0-72.696 32.604-72.696 72.644 0 40.092 32.604 72.696 72.696 72.696 40.040 0 72.644-32.604 72.644-72.696 0-40.040-32.604-72.644-72.644-72.644v0zM512.026 842.048c-11.44 0-20.696-9.308-20.696-20.696 0-11.336 9.256-20.644 20.696-20.644 11.388 0 20.644 9.308 20.644 20.644 0 11.388-9.256 20.696-20.644 20.696v0zM605.66 242.020h-387.66c-14.352 0-26 11.596-26 26 0 14.352 11.648 26 26 26h387.66c14.404 0 26.052-11.648 26.052-26 0-14.404-11.648-26-26.052-26zM812.628 242.020h-82.628c-14.352 0-26 11.596-26 26 0 14.352 11.648 26 26 26h82.628c14.352 0 26-11.648 26-26 0-14.404-11.648-26-26-26z" />
<glyph unicode="&#xe905;" glyph-name="tz-bin" d="M931.342 708.306h-838.744c-15.756 0-28.598 13.824-28.598 30.784 0 17.024 12.842 30.848 28.598 30.848h838.744c15.815 0 28.658-13.824 28.658-30.848 0-16.96-12.842-30.784-28.658-30.784zM794.206 1.975h-564.359c-41.394 0-75.149 34.11-75.149 76.088l-42.638 661.068c-1.007 15.974 10.896 29.666 26.589 30.747 16.048 1.141 29.314-11.050 30.32-26.964l42.697-662.93c0.059-12.011 8.172-20.178 18.18-20.178h564.359c9.949 0 18.062 8.167 18.062 18.256l42.756 664.852c1.066 15.914 14.449 28.285 30.32 26.964 15.752-1.081 27.655-14.773 26.589-30.747l-42.697-662.93c0.059-40.116-33.637-74.226-75.031-74.226zM367.942 145.209c-15.583 0-28.448 12.382-29.052 27.965l-15.825 420.626c-0.604 16.066 11.899 29.536 27.965 30.2 16.248-0.302 29.536-11.959 30.14-27.965l15.825-420.626c0.604-16.006-11.899-29.536-27.965-30.2h-1.087zM651.762 145.133h-0.846c-16.006 0.483-28.69 13.892-28.207 29.898l11.899 420.626c0.423 16.066 13.53 29.475 29.838 28.267 16.066-0.483 28.69-13.832 28.267-29.898l-11.899-420.626c-0.483-15.764-13.348-28.267-29.052-28.267zM684.076 711.773c-16.006 0-29.052 13.046-29.052 29.052v75.258c0 10.208-8.275 18.422-18.422 18.422h-257.425c-10.208 0-18.482-8.214-18.482-18.422v-75.258c0-16.006-12.986-29.052-29.052-29.052s-29.052 13.046-29.052 29.052v75.258c0 42.28 34.307 76.587 76.587 76.587h257.425c42.22 0 76.587-34.307 76.587-76.587v-75.258c0-16.006-13.046-29.052-29.113-29.052z" />
<glyph unicode="&#xe906;" glyph-name="tz-blist" d="M512 896c246.976 0 448-200.96 448-448 0-246.976-201.024-448-448-448s-448 201.024-448 448c0 247.040 201.024 448 448 448v0zM512 832c-91.456 0-175.296-32.064-241.344-85.44l539.904-539.84c53.376 65.984 85.44 149.824 85.44 241.28 0 212.032-171.968 384-384 384v0zM512 64c97.536 0 186.368 36.672 254.080 96.64l-541.44 541.44c-59.968-67.712-96.64-156.544-96.64-254.080 0-212.032 171.968-384 384-384v0z" />
<glyph unicode="&#xe907;" glyph-name="tz-board" d="M252.607 128c-14.928 0-27.087 12.097-27.142 27.016l-1.466 457.751c-0.054 15.027 12.051 27.179 27.087 27.233 15.036 0 27.142-12.097 27.196-27.016v-419.941h465.968v419.724c-0.054 15.027 12.051 27.179 27.033 27.233 15.036 0 27.196-12.097 27.25-27.016l1.466-457.751c0-7.161-2.877-14.105-7.925-19.204-5.103-5.154-12.051-8.029-19.216-8.029h-520.251zM645.878 256h-267.755c-14.472 0-26.122 14.336-26.122 32s11.651 32 26.122 32h267.755c14.42 0 26.122-14.336 26.122-32s-11.703-32-26.122-32zM645.878 448h-267.755c-14.472 0-26.122 14.336-26.122 32s11.651 32 26.122 32h267.755c14.42 0 26.122-14.336 26.122-32s-11.703-32-26.122-32zM836.3-0.574h-648.6c-45.65 0-82.8 38.64-82.8 86.112v567.456c0 47.472 37.15 86.112 82.8 86.112h191.489c10.433 0 18.989 8.556 18.989 18.989v25.006c0 62.818 51.060 113.822 113.822 113.822s113.878-51.005 113.878-113.822v-25.006c0-10.433 8.501-18.989 18.934-18.989h191.489c45.65 0 82.8-38.64 82.8-86.112v-567.456c0-47.472-37.15-86.112-82.8-86.112v0zM195.59 678.143c-14.865 0-26.928-13.518-26.928-30.16v-553.649c0-16.642 12.064-30.16 26.928-30.16h632.819c14.865 0 26.928 13.518 26.928 30.16v553.649c0 16.642-12.064 30.16-26.928 30.16h-186.83c-39.854 0-72.33 32.476-72.33 72.384v24.397c0 31.56-25.69 57.25-57.25 57.25s-57.196-25.69-57.196-57.25v-24.397c0-39.908-32.476-72.384-72.384-72.384h-186.83z" />
<glyph unicode="&#xe908;" glyph-name="tz-break" d="M542.957 82.641c-10.426 0-20.416 6.005-24.947 16.158l-55.134 124.352c-3.767 8.407-3.002 18.178 2.020 25.875l70.801 109.504-70.801 109.504c-5.841 9.007-5.841 20.634 0 29.641l72.602 112.288-46.291 111.032c-5.732 13.92 0.819 29.914 14.739 35.701 14.029 5.568 29.914-0.71 35.701-14.684l51.75-124.297c3.439-8.352 2.566-17.796-2.293-25.384l-70.801-109.449 70.801-109.504c5.841-9.007 5.841-20.634 0-29.641l-72.384-111.906 49.184-110.814c6.168-13.811-0.055-29.914-13.811-36.028-3.657-1.638-7.369-2.347-11.136-2.347zM517.301 56.875h-1.037c-5.131 0-10.044 1.419-14.357 4.094-420.657 261.532-425.461 480.922-425.461 490.148 0 294.012 245.047 297.451 247.558 297.451 2.675 0.218 6.824 0.328 10.972 0.328 87.723 0 150.609-53.606 181.779-87.887 32.698 35.919 100.988 93.346 194.389 87.505 2.511 1.365 95.038-0.655 166.549-72.002 52.678-52.623 79.371-128.501 79.371-225.395 0-9.225-4.858-228.616-425.406-490.148-4.312-2.675-9.225-4.094-14.357-4.094v0zM334.976 794.308c-3.112 0-6.223-0.109-9.389-0.273-9.389-0.109-194.552-4.094-194.552-242.918 0.055-1.692 8.57-195.972 385.72-435.014 377.096 239.042 385.666 433.321 385.72 435.287 0 81.664-21.289 144.44-63.377 186.473-55.625 55.571-128.828 56.117-129.538 56.117-4.804 0.218-7.915 0.328-11.027 0.328-96.457 0-157.924-90.344-158.47-91.217-10.153-15.176-36.356-15.176-46.509 0-0.655 0.873-62.121 91.217-158.579 91.217v0z" />
<glyph unicode="&#xe909;" glyph-name="tz-client" d="M521.984 229.683c-184.371 0-334.336 149.965-334.336 334.336 0 184.32 149.965 334.285 334.336 334.285 184.32 0 334.285-149.965 334.285-334.285 0-184.371-149.965-334.336-334.285-334.336v0zM521.984 847.104c-156.109 0-283.136-127.027-283.136-283.085 0-156.109 127.027-283.136 283.136-283.136s283.085 127.027 283.085 283.136c0 156.058-126.976 283.085-283.085 283.085v0zM82.893-18.739l-49.92 11.469c49.306 213.094 192.922 290.355 270.131 331.827 8.704 4.71 16.589 8.909 23.245 12.851l25.805-44.288c-7.168-4.147-15.514-8.653-24.832-13.67-74.957-40.294-200.397-107.674-244.429-298.189zM961.792-18.739c-44.032 190.515-169.472 257.894-244.429 298.189-9.318 5.018-17.664 9.523-24.832 13.67l25.805 44.288c6.656-3.942 14.541-8.141 23.245-12.851 77.21-41.472 220.826-118.733 270.131-331.827l-49.92-11.469zM610.458 142.746c-0.768 0-1.587 0.051-2.355 0.205-3.328 0.666-6.298 2.611-8.243 5.427l-68.454 100.608 21.197 14.438 61.235-90.010 156.979 107.776 14.49-21.094-167.578-115.098c-2.15-1.485-4.71-2.253-7.27-2.253zM428.698 142.746c-2.509 0-5.069 0.768-7.219 2.253l-167.68 115.098 14.541 21.094 157.030-107.776 61.133 90.010 21.197-14.438-68.403-100.608c-1.946-2.816-4.864-4.762-8.243-5.427-0.717-0.154-1.536-0.205-2.355-0.205zM496.384 255.283h51.2v-258.714h-51.2v258.714zM521.984 375.706c-81.51 0-130.15 38.502-130.15 103.066h25.6c0-67.43 65.485-77.466 104.55-77.466 39.014 0 104.499 10.035 104.499 77.466h25.6c0-64.563-48.691-103.066-130.099-103.066z" />
<glyph unicode="&#xe90a;" glyph-name="tz-contract" d="M856.64-2.36c-2.28 0-4.56 0.18-6.84 0.24l-682.2 2.64c-22.74 0-43.020 8.94-58.56 25.8-43.44 47.22-36.6 146.58-35.7 157.68 1.26 15.6 14.28 27.54 29.88 27.54l71.34 0.060 1.44 648.48c0.060 16.56 13.5 29.94 30 29.94h0.060l723.54-1.2c16.5 0 29.88-13.44 29.88-30v-737.52c0.12-6.24-0.48-64.44-36.48-99.060-16.2-15.72-37.2-24.060-60.96-24.42-1.86-0.060-3.66-0.18-5.4-0.18v0zM858.38 57.88c13.74 0.3 19.38 4.080 23.040 7.5 15.3 14.82 18.18 47.64 18.12 55.68v707.82l-663.6 1.080-1.38-618.3 552.48 0.42c15.84 0 28.98-12.36 29.94-28.26l3.72-63.3c0.060-24.48 7.14-46.38 17.7-56.16 4.020-3.72 8.46-5.76 13.92-6.42h4.62c0.36 0 0.9-0.24 1.020 0 0.18 0 0.3-0.060 0.42-0.060v0zM132.44 151.54c0.78-32.1 6.66-69.3 20.76-84.6 4.2-4.5 8.4-6.42 14.52-6.42l604.5-2.28c-10.32 25.26-11.46 50.7-11.46 60.54l-1.98 33.3-626.34-0.54zM334.16 642.64c-11.58 0-21 9.36-21 20.88 0 11.58 9.36 21.060 20.94 21.060l455.040 0.66c11.58 0 21-9.42 21-20.94 0-11.58-9.36-21.060-20.94-21.060l-455.040-0.6zM401.78 370.12h-0.96c-11.58 0.12-20.88 9.72-20.7 21.24 0.18 11.58 9.18 19.98 21.36 20.7 20.94-0.24 59.94 24.6 76.86 35.22 8.1 4.92 18.96 4.26 25.92-2.22 6.96-6.6 9-16.8 4.44-25.14-1.86-3.42-1.92-5.46-1.8-5.88 0.3 0 3.36-0.3 7.14 2.88 9.3 7.74 28.92 19.32 51.6 32.7 22.14 13.080 55.62 32.82 62.76 40.44 6.54 7.080 17.16 8.64 25.68 3.9 8.4-4.8 12.48-14.76 9.78-24.060-1.86-6.54-2.4-16.020-3.24-26.76-0.66-7.68-1.26-15.78-2.28-24.060 12.3-0.060 22.26-1.44 22.5-1.5 4.32-0.78 8.58-2.1 12.78-3.48 2.28-0.78 5.64-1.86 6.78-1.92 8.88 7.56 20.94 6.3 28.56-2.52 7.56-8.82 5.46-22.38-3.3-29.94-17.22-14.7-35.4-8.7-45.18-5.52-2.28 0.78-4.56 1.56-6.84 1.98-4.32 0.36-25.26 0.42-32.7-0.66-5.16-2.28-11.34-2.58-16.92-0.12-9.72 4.2-14.82 14.94-11.88 25.080 2.76 9.54 4.26 20.46 5.28 31.14-8.94-5.46-19.080-11.46-30.42-18.18-18.48-10.86-39.42-23.22-46.080-28.8-18.72-15.6-43.86-16.68-61.020-2.58-4.020 3.3-7.26 7.14-9.72 11.4-23.64-13.080-47.64-23.34-68.4-23.34z" />
<glyph unicode="&#xe90b;" glyph-name="tz-copyright" d="M600.64 0h-177.281c-198.191 0-359.36 161.219-359.36 359.41v177.23c0 198.14 161.169 359.36 359.36 359.36h177.281c198.14 0 359.36-161.219 359.36-359.36v-177.23c0-198.191-161.219-359.41-359.36-359.41v0zM423.36 845.493c-170.311 0-308.852-138.592-308.852-308.852v-177.23c0-170.311 138.542-308.903 308.852-308.903h177.281c170.311 0 308.852 138.592 308.852 308.903v177.23c0 170.26-138.542 308.852-308.852 308.852h-177.281zM346.829 449.288c0 147.436 78.568 240.808 197.053 240.808 54.063 0 95.293-27.032 119.091-55.377l-14.804-16.118c-25.112 29.002-60.531 48.96-104.286 48.96-106.914 0-171.941-84.379-171.941-218.274 0-133.945 65.027-220.851 169.364-220.851 48.909 0 85.642 19.958 121.061 59.217l14.804-15.461c-35.419-41.179-76.648-66.291-137.179-66.291-115.251 0-193.162 95.899-193.162 243.385z" />
<glyph unicode="&#xe90c;" glyph-name="tz-count" d="M128 400.23c0 211.67 172.262 383.945 384.028 383.945 75.265 0 147.064-21.294 209.289-62.010l34.111 40.441c10.178 12.105 28.279 13.701 40.493 3.356 12.104-10.179 13.59-28.281 3.356-40.441l-51.057-60.469c-9.848-11.665-27.124-13.59-39.283-4.347-56.999 43.192-125.112 66.082-196.91 66.082-180.075 0-326.588-146.524-326.588-326.557 0-180.143 146.514-326.667 326.588-326.667s326.533 146.524 326.533 326.667c0 65.366-19.256 128.532-55.734 182.564-8.858 13.15-5.392 31.033 7.703 39.891 13.094 8.914 30.975 5.392 39.888-7.758 42.914-63.551 65.582-137.831 65.582-214.697 0-211.78-172.262-384.055-383.972-384.055-211.765 0-384.028 172.275-384.028 384.055zM577.728 399.902c0-36.275-29.453-65.728-65.728-65.728-36.331 0-65.728 29.453-65.728 65.728s29.397 65.728 65.728 65.728c36.275 0 65.728-29.453 65.728-65.728zM346.972 281.98c-9.873 0-19.413 5.436-24.128 14.921-6.656 13.257-1.22 29.508 12.036 36.164l181.986 90.91c13.367 6.822 29.508 1.331 36.164-12.092 6.656-13.257 1.276-29.453-12.036-36.109l-181.986-90.965c-3.883-1.941-7.987-2.829-12.036-2.829zM612.324 829.943h-200.649c-15.277 0-27.676 14.272-27.676 32 0 17.664 12.399 32 27.676 32h200.649c15.332 0 27.676-14.336 27.676-32 0-17.728-12.343-32-27.676-32z" />
<glyph unicode="&#xe90d;" glyph-name="tz-cube" d="M512.059 537.6c-3.678 0-7.237 0.644-10.737 1.989l-418.387 159.741c-11.686 4.506-19.279 15.74-18.923 28.086 0.356 12.405 8.542 23.171 20.525 27.033l418.328 133.702c5.932 1.931 12.398 1.931 18.33 0l418.328-133.702c11.923-3.862 20.11-14.628 20.466-27.033 0.356-12.346-7.237-23.581-18.923-28.086l-418.328-159.741c-3.441-1.346-7.059-1.989-10.678-1.989v0zM187.76 725.080l329.822-125.92 329.703 125.92-329.703 105.441-329.822-105.441zM511.189 12.8c-3.494 0-7.107 0.647-10.482 1.881l-417.637 157.265c-11.43 4.351-19.070 15.286-19.070 27.514v519.944c0 16.285 13.207 29.395 29.611 29.395 16.345 0 29.611-13.11 29.611-29.395v-499.72l358.414-134.925v477.38c0 16.226 13.207 29.395 29.552 29.395 16.405 0 29.611-13.169 29.611-29.395v-519.944c0-9.642-4.797-18.754-12.733-24.163-5.034-3.469-10.956-5.232-16.878-5.232zM513.047 12.8c-12.102 0-23.369 7.231-27.9 18.931-5.842 15.227 1.908 32.158 17.288 37.979l401.149 149.975v499.72c0 16.285 13.354 29.395 29.808 29.395 16.513 0 29.808-13.11 29.808-29.395v-519.944c0-12.228-7.631-23.164-19.196-27.514l-420.405-157.265c-3.458-1.235-7.094-1.881-10.552-1.881z" />
<glyph unicode="&#xe90e;" glyph-name="tz-disable" d="M249.954 21.8c-6.746 0-13.493 2.583-18.658 7.695l-127.548 127.548c-4.954 4.954-7.748 11.648-7.748 18.658s2.793 13.651 7.748 18.605l248.561 248.614-248.561 248.561c-4.954 4.954-7.748 11.648-7.748 18.658 0 6.957 2.793 13.651 7.748 18.605l127.548 127.548c10.278 10.278 26.985 10.278 37.263 0s10.278-26.985 0-37.263l-108.943-108.89 248.561-248.561c4.954-4.954 7.748-11.648 7.748-18.658s-2.793-13.704-7.748-18.605l-248.561-248.614 90.338-90.285 248.561 248.561c10.278 10.278 26.985 10.278 37.263 0l248.561-248.561 90.285 90.285-248.561 248.614c-4.954 4.902-7.748 11.595-7.748 18.605s2.793 13.704 7.748 18.658l248.561 248.561-90.285 90.232-248.561-248.561c-10.278-10.278-26.985-10.278-37.263 0l-188.002 188.055c-10.33 10.278-10.33 26.985 0 37.263 10.278 10.278 26.933 10.278 37.21 0l169.397-169.397 248.614 248.561c10.278 10.278 26.933 10.278 37.263 0l127.548-127.548c4.902-4.954 7.695-11.648 7.695-18.605 0-7.010-2.793-13.704-7.695-18.658l-248.614-248.561 248.614-248.614c10.278-10.278 10.278-26.933 0-37.263l-127.548-127.548c-10.33-10.278-26.985-10.278-37.263 0l-248.614 248.561-248.561-248.561c-5.165-5.112-11.912-7.695-18.605-7.695z" />
<glyph unicode="&#xe90f;" glyph-name="tz-done" d="M343.098 133.656l19.528-18.352 589.658 606.435c10.495 10.793 10.253 28.051-0.541 38.546s-28.051 10.253-38.546-0.541l-570.976-587.222 38.21 0.861-270.507 254.209c-10.97 10.31-28.221 9.774-38.531-1.197s-9.774-28.221 1.197-38.531l270.507-254.209z" />
<glyph unicode="&#xe910;" glyph-name="tz-down" d="M88.38 665.614c-8.384 0-16.832-3.52-22.976-10.304-11.328-12.672-10.176-32.128 2.496-43.52l425.536-380.032c12.096-10.816 30.784-10.24 42.304 1.216 1.28 1.344 2.432 2.688 3.392 4.16l419.84 373.696c12.672 11.328 13.824 30.784 2.496 43.52-11.264 12.672-30.72 13.888-43.52 2.496l-404.672-360.32-404.352 361.28c-5.888 5.248-13.184 7.808-20.544 7.808z" />
<glyph unicode="&#xe911;" glyph-name="tz-download" d="M512-0.262c-14.55 0-26.358 11.756-26.358 26.358v343.338c0 14.602 11.808 26.411 26.358 26.411 14.602 0 26.358-11.808 26.358-26.411v-343.338c0-14.602-11.756-26.358-26.358-26.358zM513.292-1.633c-6.748 0-13.443 2.53-18.609 7.697l-80.181 80.075c-10.28 10.332-10.28 26.99 0 37.323 10.332 10.28 26.99 10.28 37.27 0l61.519-61.467 58.936 58.884c10.28 10.28 26.938 10.28 37.27 0 10.28-10.332 10.28-26.99 0-37.27l-77.545-77.545c-5.166-5.166-11.914-7.697-18.661-7.697zM721.387 159.361c-14.55 0-26.358 11.808-26.358 26.358 0 14.602 11.808 26.358 26.358 26.358 109.122 0 197.895 88.773 197.895 197.895 0 76.912-45.283 147.446-115.342 179.708-10.543 4.85-16.658 16.026-15.129 27.518 10.227 75.542-22.615 148.711-85.821 190.937-90.566 60.676-213.604 36.11-274.228-54.455-5.113-7.749-9.436-15.762-13.39-23.933-3.11-6.484-8.751-11.281-15.498-13.548-6.8-2.267-14.233-1.634-20.506 1.74-64.63 34.16-139.064-16.447-139.064-83.713 0-4.165 0.685-8.171 1.318-12.177 1.74-11.914-4.586-24.882-15.657-29.574-73.644-30.997-121.246-102.638-121.246-182.502 0-109.122 88.773-197.895 197.895-197.895 14.55 0 26.358-11.756 26.358-26.358 0-14.55-11.808-26.358-26.358-26.358-138.168 0-250.611 112.443-250.611 250.611 0 94.519 52.61 179.919 135.638 222.724-0.053 0.474-0.053 1.002-0.053 1.529 0 81.499 66.316 147.815 147.815 147.815 15.024 0 29.89-2.425 44.439-7.169 1.634 2.741 3.321 5.377 5.113 8.066 76.754 114.762 232.582 145.812 347.344 69.058 74.751-49.975 116.027-134.109 110.598-223.040 79.021-43.912 129.101-127.889 129.101-218.981 0-138.168-112.39-250.611-250.611-250.611z" />
<glyph unicode="&#xe912;" glyph-name="tz-edit" d="M323.732 158.878c-8.178 0-16.24 3.422-21.982 10.092l-141.404 164.43c-5.046 5.8-7.54 13.398-6.96 21.112 0.638 7.656 4.234 14.79 10.034 19.836l598.502 513.184c12.238 10.324 30.45 9.048 40.89-3.074l141.404-164.43c5.046-5.858 7.54-13.456 6.902-21.112-0.58-7.656-4.176-14.79-10.034-19.836l-598.444-513.242c-5.51-4.64-12.238-6.96-18.908-6.96v0zM223.218 349.176l103.646-120.466 554.422 475.484-103.588 120.466-554.48-475.484zM102.172 111.434c-8.352 0-16.472 3.596-22.040 10.034-6.902 8.062-8.874 19.256-5.104 29.174l80.156 211.932c5.684 14.964 22.504 22.33 37.41 16.878 14.964-5.684 22.504-22.446 16.878-37.41l-61.364-162.168 169.534 36.366c15.602 3.364 31.088-6.612 34.452-22.33 3.364-15.602-6.67-31.030-22.33-34.394l-221.56-47.502c-2.030-0.348-4.060-0.58-6.032-0.58zM899.282-0.714h-808.369c-16.004 0-28.993 14.336-28.993 32s12.989 32 28.993 32h808.369c16.004 0 28.993-14.336 28.993-32s-12.989-32-28.993-32z" />
<glyph unicode="&#xe913;" glyph-name="tz-eye" d="M515.112 106.078h-3.335c-305.462 0-489.817 302.85-497.543 315.744-5.058 8.504-5.224 19.064-0.445 27.678 7.725 13.895 192.081 340.421 495.32 340.421h5.78c303.35 0 487.594-326.526 495.32-340.421 4.78-8.67 4.613-19.175-0.445-27.734-7.67-12.839-192.081-315.688-494.653-315.688v0zM508.943 161.657h6.169c236.822 0 399.39 217.592 438.073 274.949-38.016 60.748-201.363 297.736-438.296 297.736h-5.78c-236.766 0-400.224-236.933-438.24-297.681 38.85-57.357 201.807-275.005 438.073-275.005zM512 222.961c-124.052 0-225.039 100.931-225.039 225.039 0 124.052 100.987 225.039 225.039 225.039 124.108 0 225.039-100.987 225.039-225.039 0-124.108-100.931-225.039-225.039-225.039v0zM512 617.46c-93.373 0-169.46-76.032-169.46-169.46s76.088-169.46 169.46-169.46c93.428 0 169.46 76.032 169.46 169.46s-76.032 169.46-169.46 169.46v0z" />
<glyph unicode="&#xe914;" glyph-name="tz-file" d="M559.279 0c-1.86 0-3.72 0.174-5.637 0.579-0.523 0.116-1.046 0.232-1.569 0.348h-459.013c-16.040 0-29.059 12.977-29.059 28.967v837.14c0 15.99 13.018 28.967 29.059 28.967h835.848c15.982 0 29.059-12.977 29.059-28.909l0.872-589.126c0.756-2.607 1.162-5.388 1.162-8.169 0-16.048-13.018-29.025-29.059-29.025h-1.162c-4.010 0-8.020 0.869-11.856 2.549l-201.203 89.449-130.59-314.869c-4.533-11.007-15.227-17.901-26.85-17.901v0zM128 64h412.405l132.366 318.963c2.981 7.080 8.656 12.733 15.822 15.588 7.223 2.855 15.249 2.627 22.357-0.457l185.049-82.225-0.803 516.13h-767.197v-768zM755.687 640h-487.375c-15.629 0-28.313 14.336-28.313 32 0 17.728 12.684 32 28.313 32h487.375c15.685 0 28.313-14.272 28.313-32 0-17.664-12.627-32-28.313-32zM468.795 253.16h-201.59c-15.017 0-27.205 14.272-27.205 32 0 17.664 12.188 32 27.205 32h201.59c15.017 0 27.205-14.336 27.205-32 0-17.728-12.188-32-27.205-32zM561.239 0c-9.454 0-18.734 4.64-24.244 13.166-8.758 13.398-4.93 31.378 8.41 40.136l369.75 241.048c13.456 8.7 31.378 4.988 40.136-8.41s4.93-31.378-8.41-40.136l-369.75-241.106c-4.93-3.132-10.44-4.698-15.892-4.698z" />
<glyph unicode="&#xe915;" glyph-name="tz-find" d="M931.186 512c-15.905 0-28.814 13.682-28.814 30.539v292.382h-809.558c-15.905 0-28.814 13.62-28.814 30.539 0 16.858 12.909 30.539 28.814 30.539h838.372c15.905 0 28.814-13.682 28.814-30.539v-322.922c0-16.858-12.909-30.539-28.814-30.539zM421.255 0h-330.511c-14.763 0-26.745 12.784-26.745 28.663v838.674c0 15.822 11.982 28.663 26.745 28.663 14.817 0 26.745-12.841 26.745-28.663v-810.012h303.766c14.763 0 26.745-12.841 26.745-28.663 0-15.879-11.982-28.663-26.745-28.663zM582.694 168.506c-118.436 0-219.588 80.736-245.978 196.272-15.080 65.714-3.538 133.4 32.306 190.53s91.814 96.918 157.586 111.94c18.56 4.234 37.584 6.38 56.434 6.38 118.436 0 219.588-80.678 245.978-196.272 15.080-65.656 3.596-133.4-32.248-190.53s-91.814-96.918-157.586-111.94c-18.56-4.234-37.584-6.38-56.492-6.38v0zM583.042 615.628c-14.558 0-29.174-1.624-43.558-4.93-50.634-11.6-93.728-42.166-121.394-86.188-27.608-44.022-36.366-96.164-24.824-146.798 20.358-89.030 98.252-151.206 189.428-151.206 14.558 0 29.174 1.682 43.558 4.93 50.634 11.6 93.728 42.224 121.394 86.188 27.666 44.022 36.424 96.222 24.882 146.856-20.416 89.030-98.252 151.148-189.486 151.148v0zM905 33.25c-7.424 0-14.848 2.842-20.474 8.526l-116 115.942c-11.368 11.368-11.368 29.696 0 41.064 11.31 11.31 29.638 11.31 40.948 0l116-116c11.368-11.368 11.368-29.696 0-41.006-5.626-5.684-13.050-8.526-20.474-8.526z" />
<glyph unicode="&#xe916;" glyph-name="tz-heart" d="M511.708 30.429h-1.033c-4.957 0-9.79 1.363-14.045 3.966-427.714 261.734-432.63 520.908-432.63 531.813 0 293.997 248.474 297.425 250.994 297.425 2.768 0.207 6.981 0.33 11.195 0.33 89.599 0 153.629-54.404 184.982-88.567 32.841 35.774 101.083 94.309 197.664 88.154 1.198 0.62 63.451-0.578 124.919-37.798 56.841-34.41 124.547-107.404 124.547-259.545 0-10.906-4.916-270.079-432.589-531.813-4.214-2.602-9.088-3.966-14.004-3.966v0zM326.189 810.221c-3.181 0-6.403-0.083-9.625-0.248-9.542-0.124-198.862-4.007-198.862-243.765 0.041-2.189 7.477-236.247 393.51-477.657 388.884 243.187 393.386 475.302 393.386 477.657 0 239.717-189.278 243.641-197.375 243.682-4.751 0.248-7.931 0.33-11.112 0.33-99.472 0-161.477-90.715-162.138-91.624-9.914-14.789-35.567-14.83-45.564-0.041-0.62 0.909-63.409 91.665-162.221 91.665v0z" />
<glyph unicode="&#xe917;" glyph-name="tz-human" d="M509.512 0c-142.554 0-283.223 20.976-418.14 62.469-12.779 3.869-20.365 17.056-17.31 30.038 37.675 163.020 137.259 235.112 208.892 275.128 6.924 3.869 13.593 7.484 19.907 10.793-58.651 56.309-92.762 134.917-92.762 216.987 0 165.769 134.866 300.584 300.584 300.584 165.769 0 300.635-134.815 300.635-300.584 0-82.885-32.991-159.813-91.692-216.172 68.629-36.198 185.931-103.453 229.053-281.441 1.273-2.953 1.935-6.16 1.935-9.47 0-12.932-9.724-24.641-22.554-26.067-0.509-0.051-0.967-0.102-1.426-0.153-134.764-41.188-275.027-62.113-417.122-62.113v0zM129.804 104.040c247.28-71.073 516.858-70.717 764.393 1.375-42.97 147.288-144.081 200.288-205.634 232.617-9.419 4.938-17.87 9.419-25.049 13.543-3.055 1.782-5.702 4.175-7.79 6.975-8.197 11.302-6.669 28.256 4.48 36.606 63.793 47.705 100.398 120.61 100.398 200.135 0 137.666-112.057 249.672-249.723 249.672s-249.672-112.006-249.672-249.672c0-80.186 37.166-153.551 101.977-201.204 6.924-5.091 10.793-13.288 10.335-21.892-0.458-8.553-5.244-16.292-12.677-20.619-7.077-4.124-15.477-8.553-24.845-13.441-8.553-4.531-18.023-9.47-28.002-15.070-64.709-36.148-142.095-93.525-178.192-219.023v0z" />
<glyph unicode="&#xe918;" glyph-name="tz-idea" d="M660.376 83.48h-296.803c-14.293 0-25.852 11.558-25.852 25.8v8.256c-135.708 68.525-222.551 210.941-222.551 367.547 0 225.647 178.020 409.24 396.804 409.24 218.836 0 396.856-183.593 396.856-409.24 0-156.606-86.843-299.022-222.654-367.547v-8.256c0-14.242-11.507-25.8-25.8-25.8v0zM389.269 135.080h245.358c0.464 9.649 6.244 18.266 15.119 22.291 126.059 56.915 207.484 185.554 207.484 327.712 0 197.215-154.852 357.64-345.256 357.64-190.352 0-345.204-160.424-345.204-357.64 0-142.158 81.425-270.797 207.432-327.712 8.824-4.025 14.654-12.642 15.067-22.291v0zM649.1 475.95h-89.423v51.6h71.672v21.414h-194.48v51.6h212.231c18.679 0 33.85-15.944 33.85-35.501v-53.716c0-19.556-15.17-35.398-33.85-35.398zM547.087 277.032h-56.966c-20.176 0-36.584 15.17-36.584 33.85v165.068h-69.815c-18.679 0-33.85 15.841-33.85 35.398v53.716h51.6v-37.513h68.215c19.556 0 35.449-15.222 35.449-33.901v-165.017h26.935v105.316h51.6v-123.066c0-18.989-16.048-33.85-36.584-33.85zM595.287 0.611h-166.573c-14.26 0-25.833 11.507-25.833 25.8 0 14.242 11.573 25.8 25.833 25.8h166.573c14.26 0 25.833-11.558 25.833-25.8 0-14.293-11.573-25.8-25.833-25.8z" />
<glyph unicode="&#xe919;" glyph-name="tz-ing" d="M626.503 28.458l-198.087 733.101-136.021-419.689c-3.584-10.899-13.369-18.635-24.917-19.482-11.548-1.525-22.414 5.252-27.591 15.529l-65.65 130.052-29.184-48.113c-5.12-8.471-14.393-13.666-24.348-13.666h-69.86c-15.701 0-28.444 12.593-28.444 28.235 0 15.586 12.743 28.235 28.444 28.235h53.817l47.559 78.268c5.291 8.809 15.474 14.231 25.429 13.722 10.411-0.452 19.684-6.438 24.348-15.586l57.572-114.071 144.213 445.045c3.868 11.859 15.36 20.047 27.762 19.539 12.629-0.282 23.495-8.809 26.795-20.894l194.901-721.186 128.512 501.628c3.129 12.254 14.165 21.007 26.965 21.289 12.857 1.525 24.178-7.962 27.819-20.104l58.482-192.565h75.662c15.701 0 28.444-12.649 28.444-28.235 0-15.642-12.743-28.235-28.444-28.235h-96.825c-12.516 0-23.609 8.188-27.193 20.047l-35.044 115.313-130.105-507.784c-3.129-12.48-14.393-21.176-27.364-21.289-13.028 0-24.292 8.584-27.648 20.894z" />
<glyph unicode="&#xe91a;" glyph-name="tz-key" d="M304.059 32c-64.079 0-124.382 24.957-169.74 70.309-45.358 45.3-70.319 105.542-70.319 169.665s24.96 124.365 70.319 169.717c45.358 45.405 105.662 70.309 169.74 70.309 64.131 0 124.434-24.904 169.74-70.309 93.601-93.588 93.601-245.846 0-339.382-45.306-45.352-105.609-70.309-169.74-70.309v0zM304.059 459.57c-50.078 0-97.219-19.504-132.667-54.947-35.448-35.39-54.955-82.525-54.955-132.649 0-50.071 19.507-97.206 54.955-132.596 70.896-70.886 194.491-70.886 265.334 0 73.15 73.088 73.15 192.105 0 265.245-35.448 35.443-82.537 54.947-132.667 54.947v0zM439.175 429.759c-10.507 10.507-10.561 27.447-0.107 37.9l382.699 384.468c5.039 5.093 11.901 7.934 18.977 7.934 7.183 0 13.991-2.841 19.030-7.88l90.274-90.22c10.453-10.507 10.453-27.447 0-37.9-10.507-10.507-27.447-10.507-37.954 0l-71.243 71.243-363.776-365.438c-5.2-5.253-12.115-7.88-18.977-7.88s-13.723 2.627-18.923 7.773zM803.14 564.818c-6.862 0-13.723 2.627-18.977 7.88l-90.006 89.952c-10.507 10.507-10.507 27.447 0 37.9 10.453 10.507 27.447 10.507 37.9 0l90.006-89.952c10.453-10.507 10.453-27.447 0-37.9-5.253-5.253-12.115-7.88-18.923-7.88z" />
<glyph unicode="&#xe91b;" glyph-name="tz-leave" d="M772.43 0h-616.859c-15.219 0-27.57 12.624-27.57 28.178v839.644c0 15.554 12.352 28.178 27.57 28.178h616.859c15.274 0 27.57-12.624 27.57-28.178v-136.606c0-15.611-12.296-28.178-27.57-28.178-15.219 0-27.57 12.567-27.57 28.178v108.428h-561.719v-783.289h561.719v82.505c0 15.611 12.352 28.178 27.57 28.178 15.274 0 27.57-12.567 27.57-28.178v-110.683c0-15.554-12.296-28.178-27.57-28.178zM886.733 419.303h-426.261c-15.364 0-27.733 12.425-27.733 27.733s12.369 27.733 27.733 27.733h426.261c15.364 0 27.733-12.425 27.733-27.733s-12.369-27.733-27.733-27.733zM806.639 336.346c-7.1 0-14.199 2.718-19.635 8.154-10.816 10.816-10.816 28.343 0 39.215l62.012 61.956-64.73 64.73c-10.816 10.816-10.816 28.399 0 39.215s28.399 10.816 39.215 0l84.365-84.309c5.158-5.214 8.098-12.258 8.098-19.635s-2.94-14.421-8.098-19.635l-81.591-81.536c-5.436-5.436-12.535-8.154-19.635-8.154z" />
<glyph unicode="&#xe91c;" glyph-name="tz-left" d="M729.614 14.78c0-8.384-3.52-16.832-10.304-22.976-12.672-11.328-32.128-10.176-43.52 2.496l-380.032 425.536c-10.816 12.096-10.24 30.784 1.216 42.304 1.344 1.28 2.688 2.432 4.16 3.392l373.696 419.84c11.328 12.672 30.784 13.824 43.52 2.496 12.672-11.264 13.888-30.72 2.496-43.52l-360.32-404.672 361.28-404.352c5.248-5.888 7.808-13.184 7.808-20.544z" />
<glyph unicode="&#xe91d;" glyph-name="tz-link" d="M560.3 384c-7.287 0-14.574 2.722-20.153 8.165-11.101 10.831-11.101 28.383 0 39.269 27.724 26.939 42.924 62.82 42.924 100.978 0 38.103-15.2 74.039-42.924 100.978l-169.362 165.353c-57.042 55.71-150.063 55.599-207.105 0-57.042-55.71-57.042-146.357 0-202.067l129.113-125.973c11.101-10.831 11.101-28.383 0-39.214-11.158-10.887-29.147-10.887-40.248 0l-129.113 125.917c-79.244 77.372-79.244 203.234 0 280.606 79.244 77.261 208.244 77.372 287.602 0l169.362-165.353c38.427-37.381 59.604-87.259 59.604-140.247s-21.177-102.867-59.604-140.247c-5.522-5.443-12.809-8.165-20.096-8.165zM747.933 0c-56.638 0-109.952 21.633-149.967 60.887l-151.985 148.815c-82.642 81.008-82.642 212.843 0 293.793 11.577 11.34 30.397 11.34 41.974 0s11.577-29.775 0-41.115c-59.488-58.328-59.488-153.235 0-211.563l151.985-148.815c57.647-56.584 158.278-56.584 215.926 0 28.853 28.205 44.764 65.83 44.764 105.723 0 39.952-15.911 77.519-44.764 105.782l-109.952 107.643c-11.577 11.34-11.577 29.775 0 41.115 11.636 11.34 30.397 11.34 42.033 0l109.892-107.643c40.074-39.196 62.16-91.418 62.16-146.896s-22.085-107.643-62.16-146.838c-40.015-39.254-93.269-60.887-149.907-60.887z" />
<glyph unicode="&#xe91e;" glyph-name="tz-list" d="M416.576 511.937h-321.152c-17.409 0-31.424 14.078-31.424 31.424v321.215c0 17.346 14.015 31.424 31.424 31.424h321.152c17.346 0 31.424-14.078 31.424-31.424v-321.215c0-17.346-14.078-31.424-31.424-31.424v0zM126.848 574.848h258.304v258.304h-258.304v-258.304zM928.576 511.937h-321.152c-17.409 0-31.424 14.078-31.424 31.424v321.215c0 17.346 14.015 31.424 31.424 31.424h321.152c17.346 0 31.424-14.078 31.424-31.424v-321.215c0-17.346-14.078-31.424-31.424-31.424v0zM638.848 574.848h258.304v258.304h-258.304v-258.304zM416.576-0.063h-321.152c-17.409 0-31.424 14.078-31.424 31.424v321.215c0 17.346 14.015 31.424 31.424 31.424h321.152c17.346 0 31.424-14.078 31.424-31.424v-321.215c0-17.346-14.078-31.424-31.424-31.424v0zM126.848 62.848h258.304v258.304h-258.304v-258.304zM928.576-0.063h-321.152c-17.409 0-31.424 14.078-31.424 31.424v321.215c0 17.346 14.015 31.424 31.424 31.424h321.152c17.346 0 31.424-14.078 31.424-31.424v-321.215c0-17.346-14.078-31.424-31.424-31.424v0zM638.848 62.848h258.304v258.304h-258.304v-258.304z" />
<glyph unicode="&#xe91f;" glyph-name="tz-lock" d="M832.479-12.346h-640.9c-56.376 0-102.196 45.82-102.196 102.080v323.176c0 56.376 45.82 102.196 102.196 102.196h640.9c56.318 0 102.138-45.82 102.138-102.196v-323.176c0-56.26-45.82-102.080-102.138-102.080v0zM191.579 457.106c-24.36 0-44.196-19.836-44.196-44.196v-323.176c0-24.36 19.836-44.138 44.196-44.138h640.9c24.302 0 44.138 19.778 44.138 44.138v323.176c0 24.36-19.836 44.196-44.138 44.196h-640.9zM562.156 97.182h-299.802c-38.802 0-70.354 31.552-70.354 70.354v139.664h29v-139.664c0-22.794 18.502-41.354 41.354-41.354h299.802v-29zM242.213 481.176h-58v91.466c0 175.74 142.97 318.71 318.652 318.71h18.27c175.74 0 318.652-142.97 318.652-318.71h-57.942c0 143.782-116.928 260.71-260.71 260.71h-18.27c-143.782 0-260.652-116.928-260.652-260.71v-91.466z" />
<glyph unicode="&#xe920;" glyph-name="tz-mail" d="M932.149 128h-840.323c-15.386 0-27.827 11.675-27.827 26.064v587.871c0 14.389 12.44 26.064 27.827 26.064h840.323c15.386 0 27.851-11.675 27.851-26.064v-587.871c0-14.389-12.465-26.064-27.851-26.064v0zM119.677 180.151h784.645v535.697h-784.645v-535.697zM512.012 352c-4.75 0-9.523 1.198-13.788 3.616l-418.224 236.867 27.576 47.517 404.436-229.035 404.412 229.035 27.576-47.517-418.2-236.867c-4.265-2.419-9.039-3.616-13.788-3.616z" />
<glyph unicode="&#xe921;" glyph-name="tz-manager" d="M867.1-11.78h-696.24c-56.52 0-102.48 46.020-102.48 102.48l-4.020 685.38c0 56.7 45.96 102.66 102.48 102.66h50.34c16.56 0 30-13.44 30-30s-13.44-30-30-30h-50.34c-23.4 0-42.48-19.020-42.48-42.48l4.020-685.38c0-23.58 19.020-42.66 42.48-42.66h696.24c23.4 0 42.48 19.080 42.48 42.48l-4.020 685.38c0 23.64-19.080 42.66-42.54 42.66h-51.48c-16.62 0-30 13.44-30 30s13.38 30 30 30h51.48c56.52 0 102.54-45.96 102.54-102.48l4.020-685.38c0-56.64-45.96-102.66-102.48-102.66zM567.76 818.74h-118.14c-16.56 0-30 13.44-30 30s13.44 30 30 30h118.14c16.62 0 30-13.44 30-30s-13.38-30-30-30zM93.4 707.020h843.78v-60h-843.78v60zM330.94 780.76c-16.62 0-30 13.44-30 30v70.62c0 16.56 13.38 30 30 30 16.56 0 30-13.44 30-30v-70.62c0-16.56-13.44-30-30-30zM689.020 780.76c-16.62 0-30 13.44-30 30v70.62c0 16.56 13.38 30 30 30 16.56 0 30-13.44 30-30v-70.62c0-16.56-13.44-30-30-30zM820.9 118.96h-199.98c-16.62 0-30 13.44-30 30s13.38 30 30 30h199.98c16.56 0 30-13.44 30-30s-13.44-30-30-30zM620.92 243.94h-199.98c-16.62 0-30 13.44-30 30s13.38 30 30 30h199.98c16.56 0 30-13.44 30-30s-13.44-30-30-30zM425.92 368.92h-199.98c-16.62 0-30 13.44-30 30 0 16.62 13.38 30 30 30h199.98c16.56 0 30-13.38 30-30 0-16.56-13.44-30-30-30zM296.080 546.7l25.020-42.6 24.96 42.6h-49.98zM321.1 489.040c-5.34 0-10.26 2.82-12.96 7.44l-25.020 42.66c-2.7 4.62-2.7 10.38-0.060 15 2.7 4.68 7.68 7.56 13.020 7.56h49.98c5.34 0 10.32-2.88 13.020-7.56 2.64-4.62 2.64-10.38-0.060-15l-25.020-42.66c-2.7-4.62-7.62-7.44-12.9-7.44z" />
<glyph unicode="&#xe922;" glyph-name="tz-menu" d="M907.69 418.368h-791.488c-28.76 0-52.202 13.824-52.202 30.784 0 17.024 23.442 30.848 52.202 30.848h791.488c28.868 0 52.31-13.824 52.31-30.848 0-16.96-23.442-30.784-52.31-30.784zM907.69 98.368h-791.488c-28.76 0-52.202 13.824-52.202 30.784 0 17.024 23.442 30.848 52.202 30.848h791.488c28.868 0 52.31-13.824 52.31-30.848 0-16.96-23.442-30.784-52.31-30.784zM907.69 738.368h-791.488c-28.76 0-52.202 13.824-52.202 30.848 0 16.96 23.442 30.784 52.202 30.784h791.488c28.868 0 52.31-13.824 52.31-30.784 0-17.024-23.442-30.848-52.31-30.848z" />
<glyph unicode="&#xe923;" glyph-name="tz-minus" d="M121.655 416c-14.162 0-25.655 14.336-25.655 32s11.494 32 25.655 32h780.689c14.162 0 25.655-14.336 25.655-32s-11.494-32-25.655-32h-780.689z" />
<glyph unicode="&#xe924;" glyph-name="tz-move" d="M128 557.669v246.947c0 15.171 12.539 27.384 27.988 27.384h245.738c15.45 0 27.988-12.213 27.988-27.384 0-15.116-12.539-27.384-27.988-27.384h-217.749v-219.563c0-15.116-12.483-27.384-27.988-27.384-15.45 0-27.988 12.268-27.988 27.384zM402.331 64h-246.947c-15.116 0-27.384 12.268-27.384 27.384v246.947c0 15.116 12.268 27.384 27.384 27.384 15.171 0 27.384-12.268 27.384-27.384v-219.563h219.563c15.116 0 27.384-12.213 27.384-27.384 0-15.116-12.268-27.384-27.384-27.384zM868.616 64h-246.947c-15.116 0-27.384 12.268-27.384 27.384 0 15.171 12.268 27.384 27.384 27.384h219.563v219.563c0 15.116 12.213 27.384 27.384 27.384 15.116 0 27.384-12.268 27.384-27.384v-246.947c0-15.116-12.268-27.384-27.384-27.384zM869.19 530.286c-14.852 0-26.81 12.268-26.81 27.384v219.563h-221.286c-14.852 0-26.81 12.268-26.81 27.384 0 15.171 11.957 27.384 26.81 27.384h248.095c14.799 0 26.81-12.213 26.81-27.384v-246.947c0-15.116-12.011-27.384-26.81-27.384zM849.977 71.915l-714.055 714.109c-10.563 10.509-10.563 27.538 0 38.101 10.509 10.509 27.538 10.509 38.101 0l714.055-714.109c10.563-10.563 10.563-27.592 0-38.101-5.227-5.281-12.125-7.922-19.024-7.922s-13.796 2.641-19.077 7.922zM135.922 71.908c-10.563 10.509-10.563 27.538 0 38.101l714.055 714.109c10.563 10.509 27.592 10.509 38.101 0 10.563-10.563 10.563-27.592 0-38.101l-714.055-714.109c-5.281-5.281-12.179-7.922-19.077-7.922s-13.796 2.641-19.024 7.922z" />
<glyph unicode="&#xe925;" glyph-name="tz-msg" d="M317.935-9.214c-4.091 0-8.243 0.903-12.033 2.647-10.349 4.693-16.967 14.981-16.967 26.353v147.588h-116.603c-59.083 0-107.096 50.66-107.096 112.872v500.946c0 62.212 48.013 112.872 107.096 112.872h680.663c59.083 0 107.217-50.66 107.217-112.872v-500.946c0-62.212-48.133-112.872-107.217-112.872h-323.515c-26.112-25.811-81.044-73.223-192.653-169.549-5.355-4.633-12.093-7.039-18.892-7.039v0zM176.512 832c-26.747 0-48.512-24.449-48.512-54.576v-497.697c0-30.127 21.765-54.576 48.512-54.576h143.518c15.716 0 28.526-12.912 28.526-28.812v-112.499c58.831 51.109 151.939 132.106 154.252 134.198 5.219 4.543 11.92 7.113 18.8 7.113h325.822c26.806 0 48.571 24.448 48.571 54.576v497.697c0 30.127-21.765 54.576-48.571 54.576h-670.918zM735.617 514.368h-437.502c-15.957 0-28.915 13.76-28.915 30.784s12.958 30.848 28.915 30.848h437.502c15.957 0 28.855-13.824 28.855-30.848s-12.898-30.784-28.855-30.784zM735.617 354.368h-437.502c-15.957 0-28.915 13.824-28.915 30.784 0 17.024 12.958 30.848 28.915 30.848h437.502c15.957 0 28.855-13.824 28.855-30.848 0-16.96-12.898-30.784-28.855-30.784zM735.617 678.23h-437.502c-15.957 0-28.915 12.958-28.915 28.915 0 15.897 12.958 28.855 28.915 28.855h437.502c15.957 0 28.855-12.958 28.855-28.855 0-15.957-12.898-28.915-28.855-28.915z" />
<glyph unicode="&#xe926;" glyph-name="tz-off" d="M511.97-1.82c-248.52 0-450.72 202.2-450.72 450.78 0 120.36 46.86 233.58 132 318.66 11.7 11.76 30.72 11.76 42.42 0 11.7-11.7 11.7-30.72 0-42.42-73.8-73.74-114.42-171.84-114.42-276.24 0-215.46 175.26-390.78 390.72-390.78s390.78 175.32 390.78 390.78c0 105.42-41.4 204.3-116.58 278.28-11.76 11.7-11.94 30.66-0.36 42.42 11.64 11.94 30.6 12 42.48 0.36 86.7-85.44 134.46-199.44 134.46-321.060 0-248.58-202.2-450.78-450.78-450.78zM512 436.9c-16.56 0-30 13.44-30 30v396c0 16.56 13.44 30 30 30s30-13.44 30-30v-396c0-16.56-13.44-30-30-30z" />
<glyph unicode="&#xe927;" glyph-name="tz-out" d="M382.532 192c-7.684 0-15.308 3.055-21.026 8.745l-224.795 226.12c-11.615 11.68-11.615 30.609 0 42.349l224.795 226c8.518 8.626 21.324 11.141 32.462 6.469 11.079-4.612 18.405-15.514 18.405-27.614v-112.431h261.844c16.44 0 29.782-13.417 29.782-29.95 0-16.592-13.342-29.95-29.782-29.95h-291.686c-16.44 0-29.782 13.358-29.782 29.95v70.022l-152.842-153.702 152.842-153.762v70.082c0 16.532 13.342 29.95 29.782 29.95h291.686c16.44 0 29.782-13.417 29.782-29.95 0-16.592-13.342-29.95-29.782-29.95h-261.844v-112.431c0-12.1-7.326-23.061-18.405-27.674-3.693-1.557-7.565-2.276-11.436-2.276zM864 0c-17.664 0-32 12.624-32 28.178v839.644c0 15.611 14.336 28.178 32 28.178s32-12.567 32-28.178v-839.644c0-15.554-14.336-28.178-32-28.178z" />
<glyph unicode="&#xe928;" glyph-name="tz-pay" d="M886.182 112h-748.364c-40.727 0-73.818 32.748-73.818 73.075v525.851c0 40.271 33.091 73.075 73.818 73.075h748.364c40.727 0 73.818-32.803 73.818-73.075v-525.851c0-40.327-33.091-73.075-73.818-73.075v0zM112 511.684v-333.464c0-9.876 9.667-18.22 21.053-18.22h757.895c11.386 0 21.053 8.344 21.053 18.22v335.171l-800-1.706zM112 717.78v-76.411h800v76.411c0 9.876-9.667 18.22-21.053 18.22h-757.895c-11.386 0-21.053-8.344-21.053-18.22zM704 352c-17.673 0-32-14.327-32-32v-64c0-17.673 14.327-32 32-32h128c17.673 0 32 14.327 32 32v64c0 17.673-14.327 32-32 32h-128z" />
<glyph unicode="&#xe929;" glyph-name="tz-pic" d="M582.639 25.453h-489.194c-15.901 0-28.805 12.85-28.805 28.812v742.376c0 15.904 12.905 28.812 28.805 28.812h458.295c15.958 0 28.805-12.908 28.805-28.812 0-15.962-12.847-28.812-28.805-28.812h-429.489v-684.751h728.298v554.923c0 15.904 12.905 28.812 28.805 28.812s28.805-12.908 28.805-28.812v-583.736c0-15.962-12.962-28.812-28.805-28.812h-296.715zM709.312 379.053l47.232-44.986h-92.102l44.87 44.986zM470.848 439.475l115.315-115.546h-230.918l115.603 115.546zM586.163 295.13h-230.918c-15.955 0-28.8 12.845-28.8 28.8 0 15.898 12.845 28.8 28.8 28.8h230.918c15.955 0 28.8-12.902 28.8-28.8 0-15.955-12.845-28.8-28.8-28.8zM756.544 305.267h-92.102c-15.898 0-28.8 12.902-28.8 28.858 0 15.898 12.902 28.742 28.8 28.742h92.102c15.898 0 28.8-12.845 28.8-28.742 0-15.955-12.902-28.858-28.8-28.858zM270.285 281.363h-63.36c-15.898 0-28.8 12.902-28.8 28.8 0 15.955 12.902 28.8 28.8 28.8h63.36c15.898 0 28.8-12.845 28.8-28.8 0-15.898-12.902-28.8-28.8-28.8zM155.891 230.848c-7.43 0-14.803 2.88-20.448 8.582-11.232 11.29-11.117 29.549 0.23 40.723l83.75 83.059c5.53 5.587 12.73 9.158 20.851 8.41 7.776-0.173 15.149-3.456 20.506-9.101l61.632-65.837c10.886-11.578 10.31-29.837-1.267-40.666-11.635-10.944-29.779-10.426-40.723 1.267l-41.414 44.179-62.842-62.266c-5.587-5.587-12.96-8.352-20.275-8.352zM259.974 199.974c-7.373 0-14.746 2.822-20.39 8.467-11.174 11.232-11.174 29.491 0.058 40.723l210.816 210.701c5.414 5.414 12.73 8.41 20.39 8.41 7.603 0 14.976-2.995 20.39-8.41l148.32-148.723c11.232-11.232 11.174-29.491-0.058-40.723-11.347-11.117-29.549-11.174-40.723 0.115l-127.987 128.218-190.426-190.31c-5.645-5.645-13.018-8.467-20.39-8.467zM599.181 240.122c-7.373 0-14.803 2.765-20.39 8.41-11.232 11.232-11.232 29.549 0.058 40.723l110.074 110.131c11.002 11.059 28.915 11.347 40.205 0.518l106.157-100.915c11.52-10.944 11.981-29.203 1.037-40.723-10.944-11.578-29.203-11.981-40.723-1.037l-85.766 81.504-90.317-90.202c-5.645-5.645-13.018-8.41-20.333-8.41zM741.421 492.698h-0.403c-5.357 0-10.541 1.498-15.034 4.262-201.139 123.034-203.443 249.12-203.443 254.419 0 119.462 85.075 151.027 130.061 151.027h0.288c39.629 0 69.293-17.568 88.128-33.581 18.259 16.070 46.714 33.754 83.693 33.754 0.634 0 5.76-0.23 7.027-0.23 5.184 0 51.149-1.728 87.379-37.958 27.072-26.899 40.723-65.030 40.723-113.011 0-5.299-2.304-131.386-203.328-254.419-4.55-2.765-9.734-4.262-15.091-4.262v0zM657.67 844.922c-16.992-0.346-77.53-5.875-77.53-93.542 0.058-0.576 4.838-94.925 161.107-196.013 156.154 101.088 160.992 195.494 160.992 196.416 0 31.738-8.006 56.102-23.789 71.885-20.275 20.275-48.326 21.139-48.614 21.139h-0.288c-40.493 0-63.936-33.581-64.166-33.869-10.771-16.013-37.613-16.013-48.269 0-0.173 0.173-23.962 33.984-59.443 33.984v0z" />
<glyph unicode="&#xe92a;" glyph-name="tz-plane" d="M629.542 5.603c-10.099 0-19.488 5.568-24.183 14.739l-182.598 350.729c-5.568 10.754-3.439 23.855 5.295 32.207l162.564 156.941c10.863 10.426 28.168 10.153 38.594-0.6 10.481-10.918 10.153-28.168-0.71-38.648l-147.934-142.803 144.495-277.527 261.641 723.076-730.882-258.694 191.55-112.179c8.407-4.858 13.538-13.811 13.538-23.528v-159.616c0-15.121-12.228-27.294-27.294-27.294s-27.294 12.173-27.294 27.294v143.949l-228.779 133.96c-9.171 5.35-14.411 15.558-13.429 26.093 1.037 10.645 8.079 19.652 18.069 23.2l840.713 297.56c9.935 3.439 21.016 1.037 28.495-6.496s9.935-18.615 6.332-28.495l-302.473-835.855c-3.712-10.153-13.101-17.195-23.855-17.96-0.655-0.055-1.256-0.055-1.856-0.055z" />
<glyph unicode="&#xe92b;" glyph-name="tz-plus" d="M902.345 416h-780.689c-14.162 0-25.655 14.336-25.655 32s11.494 32 25.655 32h780.689c14.162 0 25.655-14.336 25.655-32s-11.494-32-25.655-32zM512 32c-17.728 0-32 11.444-32 25.658v780.734c0 14.163 14.272 25.607 32 25.607 17.664 0 32-11.444 32-25.607v-780.734c0-14.215-14.336-25.658-32-25.658z" />
<glyph unicode="&#xe92c;" glyph-name="tz-price" d="M318.564-8.832c-4.545 0-9.089 0.96-13.314 2.88-11.394 5.248-18.691 16.64-18.691 29.12v143.616h-112.784c-60.553 0-109.776 51.84-109.776 115.456v498.304c0 63.616 49.223 115.456 109.776 115.456h677.089c60.489 0 109.776-51.84 109.776-115.456v-498.304c0-63.616-49.287-115.456-109.776-115.456h-316.909l-194.524-167.872c-5.953-5.056-13.378-7.744-20.867-7.744v0zM173.776 832c-25.22 0-45.767-23.104-45.767-51.456v-498.304c0-28.352 20.547-51.456 45.767-51.456h144.789c17.667 0 32.005-14.272 32.005-32v-105.728l150.549 129.984c5.825 4.992 13.25 7.744 20.931 7.744h328.815c25.284 0 45.767 23.104 45.767 51.456v498.304c0 28.352-20.483 51.456-45.767 51.456h-677.089zM514.807 556.8h-5.614l-64.562 147.2h-60.631l65.367-147.2h-58.967v-51.2h89.6v-28.8h-89.6v-51.2h89.6v-67.2h64v67.2h89.6v51.2h-89.6v28.8h89.6v51.2h-58.967l65.367 147.2h-60.631l-64.562-147.2z" />
<glyph unicode="&#xe92d;" glyph-name="tz-project" d="M849.722 12.612h-669.045c-62.563 0-113.478 52.169-113.478 116.213v535.514c0 64.103 50.915 116.272 113.478 116.272h669.045c62.62 0 113.478-52.169 113.478-116.272v-535.514c0-64.044-50.857-116.213-113.478-116.213v0zM182.161 717.203c-30.291 0-54.91-25.311-54.91-56.325v-527.408c0-31.014 24.619-56.267 54.91-56.267h658.18c30.291 0 54.91 25.253 54.91 56.267v527.408c0 31.014-24.619 56.325-54.91 56.325h-658.18zM669.555 725.427c-15.898 0-28.8 12.899-28.8 28.792v52.919c0 9.616-7.834 17.505-17.453 17.505h-219.686c-9.677 0-17.51-7.889-17.51-17.505v-52.919c0-15.893-12.902-28.792-28.8-28.792s-28.8 12.899-28.8 28.792v52.919c0 41.403 33.696 75.089 75.11 75.089h219.686c41.357 0 75.053-33.686 75.053-75.089v-52.919c0-15.893-12.845-28.792-28.8-28.792zM600.090 398.099h-162.202c-32.659 0-59.213 26.554-59.213 59.213v36.518c0 32.659 26.554 59.213 59.213 59.213h162.202c32.659 0 59.213-26.554 59.213-59.213v-36.518c0-32.659-26.554-59.213-59.213-59.213v0zM437.888 495.443l-1.613-38.131 163.814-1.613c0.864 0 1.613 0.749 1.613 1.613v36.518l-163.814 1.613zM397.856 450.976c-2.534 0-5.184 0.288-7.834 1.037l-299.405 84.326c-15.322 4.32-24.192 20.275-19.93 35.539 4.378 15.322 20.218 24.192 35.597 19.93l299.405-84.326c15.264-4.32 24.192-20.218 19.872-35.539-3.571-12.73-15.091-20.966-27.706-20.966zM630.502 450.976c-12.614 0-24.134 8.237-27.706 20.966-4.32 15.322 4.608 31.219 19.872 35.539l299.462 84.326c15.437 4.262 31.219-4.608 35.539-19.93 4.262-15.264-4.608-31.219-19.93-35.539l-299.405-84.326c-2.65-0.749-5.242-1.037-7.834-1.037z" />
<glyph unicode="&#xe92e;" glyph-name="tz-reject" d="M627.008 380.48l-115.008 115.072-114.944-115.072-45.248 45.312 114.944 115.008-114.944 115.008 45.248 45.248 114.944-115.008 115.008 115.008 45.248-45.248-115.008-115.008 115.008-115.008-45.248-45.312zM318.272-11.392c-4.544 0-9.088 0.96-13.312 2.88-11.392 5.248-18.688 16.64-18.688 29.12v143.616h-112.768c-60.544 0-109.76 51.84-109.76 115.456v498.304c0 63.616 49.216 115.456 109.76 115.456h676.992c60.48 0 109.76-51.84 109.76-115.456v-498.304c0-63.616-49.28-115.456-109.76-115.456h-316.864l-194.496-167.872c-5.952-5.056-13.376-7.744-20.864-7.744v0zM173.504 829.44c-25.216 0-45.76-23.104-45.76-51.456v-498.304c0-28.352 20.544-51.456 45.76-51.456h144.768c17.664 0 32-14.272 32-32v-105.728l150.528 129.984c5.824 4.992 13.248 7.744 20.928 7.744h328.768c25.28 0 45.76 23.104 45.76 51.456v498.304c0 28.352-20.48 51.456-45.76 51.456h-676.992z" />
<glyph unicode="&#xe92f;" glyph-name="tz-review1" d="M512 0c247.424 0 448 200.576 448 448s-200.576 448-448 448c-247.424 0-448-200.576-448-448s200.576-448 448-448v0zM512 64c-212.077 0-384 171.923-384 384s171.923 384 384 384c212.077 0 384-171.923 384-384s-171.923-384-384-384v0z" />
<glyph unicode="&#xe930;" glyph-name="tz-review2" d="M512 0c247.424 0 448 200.576 448 448s-200.576 448-448 448c-247.424 0-448-200.576-448-448s200.576-448 448-448v0z" />
<glyph unicode="&#xe931;" glyph-name="tz-review3" d="M512 64c212.077 0 384 171.923 384 384s-171.923 384-384 384v-768zM512 0c-247.424 0-448 200.576-448 448s200.576 448 448 448c247.424 0 448-200.576 448-448s-200.576-448-448-448v0z" />
<glyph unicode="&#xe932;" glyph-name="tz-right" d="M294.386 14.78c0-8.384 3.52-16.832 10.304-22.976 12.672-11.328 32.128-10.176 43.52 2.496l380.032 425.536c10.816 12.096 10.24 30.784-1.216 42.304-1.344 1.28-2.688 2.432-4.16 3.392l-373.696 419.84c-11.328 12.672-30.784 13.824-43.52 2.496-12.672-11.264-13.888-30.72-2.496-43.52l360.32-404.672-361.28-404.352c-5.248-5.888-7.808-13.184-7.808-20.544z" />
<glyph unicode="&#xe933;" glyph-name="tz-sale" d="M495.569-0.325l-427.48 427.48c-5.131 5.131-7.97 12.009-7.97 19.27s2.839 14.193 7.97 19.324l421.967 421.858c5.295 5.404 13.101 8.297 20.307 8.024l412.087-15.394c14.248-0.546 25.711-12.009 26.257-26.312l15.339-412.087c0.273-7.533-2.62-14.903-7.97-20.307l-421.912-421.858c-5.077-5.131-12.064-8.024-19.27-8.024-7.26 0-14.193 2.893-19.324 8.024zM514.893 57.538l394.127 394.182-13.92 374.857-374.912 14.029-394.182-394.182 388.887-388.887zM694.761 550.033c-20.361 0-39.576 7.915-53.988 22.327-29.751 29.751-29.751 78.17 0 107.921 28.823 28.768 79.153 28.768 107.921 0 29.751-29.751 29.751-78.17 0-107.921-14.411-14.411-33.572-22.327-53.933-22.327v0zM694.761 648.019c-5.841 0-11.245-2.238-15.394-6.387-8.461-8.461-8.461-22.217 0-30.679 8.243-8.188 22.49-8.188 30.733 0 8.461 8.461 8.461 22.217 0 30.679-4.094 4.149-9.553 6.387-15.339 6.387v0z" />
<glyph unicode="&#xe934;" glyph-name="tz-search" d="M478.476 71.736c-109.975 0-213.326 42.353-291.040 119.209-160.509 158.682-160.509 416.922 0 575.661 77.713 76.913 181.065 119.266 291.040 119.266s213.384-42.353 291.097-119.266c160.452-158.739 160.452-416.979 0-575.661-77.713-76.856-181.122-119.209-291.097-119.209v0zM478.476 829.402c-94.672 0-183.749-36.48-250.727-102.664-138.125-136.715-138.125-359.209 0-495.868 66.979-66.24 156.055-102.664 250.727-102.664s183.749 36.424 250.727 102.664c138.183 136.659 138.183 359.153 0 495.868-66.979 66.184-156.055 102.664-250.727 102.664v0zM753.525 239.172l201.092-201.092c5.478-5.478 8.245-12.706 8.245-19.934s-2.767-14.456-8.245-19.991c-11.012-11.012-28.913-11.012-39.925 0l-201.092 201.092 39.925 39.925z" />
<glyph unicode="&#xe935;" glyph-name="tz-setting" d="M568.725 1.6h-111.191c-14.739 0-26.993 11.351-28.179 25.976l-8.866 110.4c-19.595 5.76-38.513 13.384-56.696 22.758l-87.812-75.219c-11.181-9.544-27.896-8.979-38.287 1.468l-78.664 78.664c-10.391 10.391-11.068 27.049-1.525 38.231l72.169 84.875c-12.593 21.967-22.532 45.289-29.704 69.741l-110.174 8.866c-14.682 1.186-25.976 13.384-25.976 28.122v111.247c0 14.739 11.294 26.936 25.976 28.122l110.174 8.866c5.873 19.765 13.553 38.908 23.040 57.205l-75.445 87.191c-9.656 11.181-9.035 27.953 1.412 38.4l78.664 78.664c10.391 10.447 27.049 11.125 38.231 1.525l84.875-72.169c22.136 12.706 45.628 22.701 70.249 29.873l8.358 104.019c1.186 14.682 13.44 25.976 28.179 25.976h111.191c14.739 0 26.936-11.294 28.122-25.976l8.414-104.019c24.565-7.172 48.056-17.167 70.249-29.873l84.762 72.169c11.181 9.6 27.896 8.922 38.287-1.525l78.664-78.664c10.391-10.334 11.068-26.993 1.581-38.174l-74.993-88.489c9.261-18.014 16.772-36.875 22.475-56.301l107.915-8.696c14.626-1.186 25.976-13.384 25.976-28.122v-111.247c0-14.739-11.351-26.936-25.976-28.122l-107.915-8.696c-6.212-21.12-14.626-41.619-25.129-61.158l67.595-79.454c9.544-11.181 8.866-27.84-1.525-38.231l-78.664-78.664c-10.447-10.447-27.049-11.068-38.287-1.525l-77.986 66.353c-21.064-11.802-43.369-21.176-66.522-28.009l-8.922-110.4c-1.186-14.626-13.384-25.976-28.122-25.976v0zM484.127 64h57.961l8.193 102.778c0.996 12.124 9.688 22.191 21.535 24.86 30.337 6.896 58.958 19.021 85.032 36.095 10.297 6.618 23.694 5.784 32.994-2.169l72.189-61.734 40.966 41.156-62.335 73.635c-7.75 9.232-8.747 22.358-2.436 32.647 15.556 25.25 26.683 52.446 33.050 80.977 2.713 11.846 12.733 20.578 24.801 21.523l99.924 8.12v58.285l-99.924 8.064c-12.068 1.001-22.088 9.733-24.801 21.579-6.034 27.029-16.331 52.891-30.503 76.917-6.034 10.178-4.927 23.081 2.713 32.146l69.365 82.2-41.021 41.211-78.998-67.573c-9.522-8.064-23.029-8.843-33.271-1.947-26.905 17.908-56.522 30.644-88.187 37.652-11.847 2.67-20.594 12.792-21.535 24.972l-7.75 96.605h-57.961l-7.75-96.605c-0.996-12.18-9.743-22.302-21.59-24.972-31.61-7.008-61.283-19.744-88.132-37.652-10.297-6.952-23.86-6.173-33.216 1.947l-79.108 67.573-40.8-41.045 69.697-80.977c7.806-9.121 8.968-22.246 2.823-32.535-14.504-24.193-24.967-50.332-31.112-77.751-2.657-11.902-12.733-20.578-24.801-21.579l-102.138-8.231v-58.285l102.138-8.231c12.124-1.001 22.144-9.733 24.801-21.579 7.141-31.701 19.708-61.4 37.478-88.207 6.809-10.345 6.034-23.97-1.993-33.425l-67.262-79.364 40.911-41.156 81.267 69.909c9.024 7.731 21.922 8.843 32.164 2.781 23.971-14.405 49.823-24.805 76.894-30.978 11.792-2.67 20.483-12.736 21.479-24.86l8.249-102.778zM511.972 268.226c-99.106 0-179.746 80.64-179.746 179.802s80.64 179.746 179.746 179.746c99.106 0 179.802-80.584 179.802-179.746s-80.696-179.802-179.802-179.802v0zM511.972 571.304c-67.991 0-123.332-55.285-123.332-123.275s55.341-123.332 123.332-123.332c67.991 0 123.332 55.341 123.332 123.332s-55.341 123.275-123.332 123.275v0z" />
<glyph unicode="&#xe936;" glyph-name="tz-share" d="M614.655 55.905h-493.497v528.19h44.297c15.775 0 28.579 12.523 28.579 27.952 0 15.486-12.803 27.952-28.579 27.952h-72.876c-15.833 0-28.579-12.467-28.579-27.952v-584.095c0-15.43 12.746-27.952 28.579-27.952h838.843c15.833 0 28.579 12.523 28.579 27.952v584.095c0 15.486-12.746 27.952-28.579 27.952h-77.848c-15.775 0-28.579-12.467-28.579-27.952 0-15.43 12.803-27.952 28.579-27.952h49.27v-528.19h-288.188zM276.341 189.214c-13.214 0-24.904 9.318-27.614 22.645-2.936 14.569 5.873 28.913 20.273 32.809 109.948 29.873 126.381 236.329 123.106 340.744h-95.322c-11.125 0-21.176 6.494-25.807 16.659-4.574 10.165-2.711 22.024 4.631 30.268l225.431 254.513c10.673 12.141 31.511 12.141 42.24 0l225.431-254.513c7.398-8.245 9.205-20.104 4.631-30.268s-14.682-16.659-25.751-16.659h-90.805c-1.073-90.974-34.504-350.231-376.602-395.972-1.299-0.226-2.541-0.226-3.84-0.226v0zM359.466 641.882h59.464c14.739 0 26.993-11.351 28.179-26.146 0.791-11.52 15.191-219.162-59.407-342.155 236.386 89.901 213.12 325.496 211.878 336.847-0.904 7.962 1.638 16.038 7.002 22.024s12.988 9.431 21.064 9.431h57.205l-162.692 183.699-162.692-183.699z" />
<glyph unicode="&#xe937;" glyph-name="tz-shut" d="M864.979 72.245c-7.469 0-14.938 2.859-20.657 8.578l-330.044 330.044-330.044-330.044c-11.437-11.437-29.877-11.437-41.256 0-11.437 11.379-11.437 29.877 0 41.256l330.044 330.044-330.044 330.044c-11.437 11.437-11.437 29.877 0 41.256 11.379 11.437 29.818 11.437 41.256 0l330.044-330.044 330.044 330.044c11.437 11.437 29.877 11.437 41.256 0 11.437-11.379 11.437-29.818 0-41.256l-330.044-330.044 330.044-330.044c11.437-11.379 11.437-29.877 0-41.256-5.66-5.719-13.129-8.578-20.599-8.578z" />
<glyph unicode="&#xe938;" glyph-name="tz-sina" d="M725.685 457.606c-34.725 6.757-17.83 25.502-17.83 25.502s33.978 56.168-6.726 97.005c-50.474 50.576-173.094-6.435-173.094-6.435-46.842-14.571-34.405 6.649-27.786 42.762 0 42.548-14.547 114.558-139.301 72.025-124.622-42.763-231.654-192.592-231.654-192.592-74.416-99.562-64.54-176.509-64.54-176.509 18.577-169.871 198.61-216.502 338.632-227.539 147.31-11.587 346.16 50.911 406.429 179.305 60.295 128.607-49.272 179.506-84.13 186.476v0zM414.304 139.725c-146.269-6.85-264.485 66.672-264.485 164.521 0 97.954 118.216 176.509 264.485 183.266 146.323 6.757 264.778-53.695 264.778-151.447 0-97.835-118.455-189.676-264.778-196.34v0zM385.103 422.992c-147.068-17.26-130.093-155.394-130.093-155.394s-1.495-43.74 39.45-66.018c86.053-46.737 174.668-18.437 219.455 39.525 44.788 57.99 18.523 199.027-128.813 181.887v0zM348.002 229.116c-27.439-3.226-49.593 12.644-49.593 35.685 0 22.934 19.671 46.95 47.137 49.828 31.548 3.009 52.102-15.214 52.102-38.254 0-22.934-22.26-44.141-49.646-47.259v0zM434.722 303.175c-9.315-6.97-20.739-6.007-25.651 2.357-5.124 8.147-3.203 21.22 6.193 28.083 10.889 8.137 22.233 5.793 27.144-2.367 4.938-8.35 1.416-20.887-7.687-28.072v0zM797.325 517.415c11.849 0 21.938 8.791 23.621 20.257 0.214 0.856 0.321 1.605 0.321 2.569 17.963 161.938-132.364 134.067-132.364 134.067-13.345 0-24.023-10.824-24.023-24.325 0-13.287 10.678-24.111 24.023-24.111 107.994 23.897 84.16-84.347 84.16-84.347-0.001-13.393 10.862-24.109 24.262-24.109v0zM779.814 800.067c-51.996 12.203-105.431 1.686-120.405-1.191-1.148-0.108-2.243-1.205-3.31-1.418-0.508-0.108-0.828-0.642-0.828-0.642-14.788-4.189-25.572-17.889-25.572-34.079 0-19.294 15.588-35.163 35.073-35.163 0 0 18.898 2.542 31.735 7.573 12.732 5.138 120.351 3.827 173.841-86.194 29.148-65.695 12.812-109.662 10.783-116.727 0 0-6.94-17.074-6.94-33.877 0-19.403 15.587-31.591 34.911-31.591 16.175 0 29.735 2.209 33.712 29.61h0.214c57.415 191.816-70.224 281.944-163.216 303.699v0z" />
<glyph unicode="&#xe939;" glyph-name="tz-star" d="M608.028 384c-15.486 0-28.055 12.57-28.055 28.058 0 110.267-89.663 199.94-199.918 199.94-15.486 0-28.055 12.514-28.055 28.002 0 15.544 12.569 28.114 28.055 28.114 110.255 0 199.918 89.617 199.918 199.828 0 15.544 12.569 28.058 28.055 28.058s28.055-12.514 28.055-28.058c0-110.211 89.663-199.828 199.806-199.828 15.542 0 28.111-12.57 28.111-28.114 0-15.488-12.569-28.002-28.111-28.002-110.143 0-199.806-89.673-199.806-199.94 0-15.488-12.569-28.058-28.055-28.058v0zM496 640c48.036-24.632 87.334-63.919 112.028-112 24.638 48.081 63.992 87.368 111.972 112-47.98 24.632-87.334 63.976-111.972 112-24.695-48.024-63.992-87.368-112.028-112v0zM224 256c-16.756 0-30.246 13.548-30.246 30.24 0 54.855-44.582 99.49-99.509 99.49-16.696 0-30.246 13.548-30.246 30.301 0 16.692 13.55 30.18 30.246 30.18 54.926 0 99.509 44.695 99.509 99.55 0 16.692 13.49 30.24 30.246 30.24 16.696 0 30.246-13.548 30.246-30.24 0-54.855 44.643-99.55 99.509-99.55 16.756 0 30.246-13.487 30.246-30.18 0-16.753-13.49-30.301-30.246-30.301-54.866 0-99.509-44.634-99.509-99.49 0-16.692-13.55-30.24-30.246-30.24v0zM192 416.027c12.287-8.914 23.132-19.75 32-32.027 8.922 12.277 19.713 23.113 32 32.027-12.287 8.807-23.078 19.696-32 31.973-8.868-12.277-19.713-23.166-32-31.973v0zM800.060 0c-16.756 0-30.306 13.548-30.306 30.24 0 54.855-44.643 99.49-99.509 99.49-16.696 0-30.246 13.548-30.246 30.24 0 16.753 13.55 30.301 30.246 30.301 54.866 0 99.509 44.634 99.509 99.49 0 16.692 13.55 30.24 30.306 30.24 16.696 0 30.246-13.548 30.246-30.24 0-54.855 44.582-99.49 99.448-99.49 16.696 0 30.246-13.548 30.246-30.301 0-16.692-13.55-30.24-30.246-30.24-54.866 0-99.448-44.634-99.448-99.49 0-16.692-13.55-30.24-30.246-30.24v0zM768 159.973c12.287-8.861 23.132-19.696 32.053-31.973 8.815 12.277 19.713 23.113 31.947 31.973-12.234 8.914-23.132 19.75-31.947 32.027-8.922-12.277-19.766-23.113-32.053-32.027v0z" />
<glyph unicode="&#xe93a;" glyph-name="tz-success" d="M402.586 48.535c-7.362 0-14.724 2.598-20.663 7.919l-192.529 172.855c-12.683 11.445-13.796 30.995-2.351 43.678 11.445 12.745 30.995 13.734 43.678 2.351l170.628-153.12 406.031 410.238c12.002 12.126 31.614 12.25 43.74 0.186 12.126-12.002 12.25-31.552 0.247-43.678l-426.756-431.211c-6.063-6.125-14.044-9.218-22.025-9.218zM400.482 327.369c-7.795 0-15.59 2.908-21.591 8.847l-204.964 199.891-94.161-96.388 59.763-58.588c12.25-11.94 12.435-31.552 0.495-43.74-11.94-12.311-31.552-12.373-43.74-0.495l-81.85 80.179c-12.188 12.002-12.435 31.552-0.495 43.74l137.344 140.685c11.94 12.064 31.552 12.435 43.74 0.495l205.15-200.139 425.952 429.045c11.94 12.126 31.49 12.188 43.616 0.247l140.128-137.963c5.877-5.815 9.156-13.611 9.218-21.839s-3.155-16.147-8.909-21.963l-67.868-68.486c-11.94-12.064-31.614-12.311-43.74-0.247-12.126 12.002-12.25 31.614-0.186 43.74l45.967 46.462-96.079 94.532-425.828-428.86c-6.001-6.063-13.982-9.156-21.963-9.156z" />
<glyph unicode="&#xe93b;" glyph-name="tz-time" d="M507.403 508.019c-94.357 0-203.497 133.429-203.497 195.981h416.188c0-66.466-118.334-195.981-212.691-195.981zM512.031 214.4c-116.346 0-256.67-23.729-256.67-86.344h513.278c0 66.466-140.262 86.344-256.608 86.344zM32 896h960c17.673 0 32-14.327 32-32s-14.327-32-32-32h-960c-17.673 0-32 14.327-32 32s14.327 32 32 32zM32 64h960c17.673 0 32-14.327 32-32s-14.327-32-32-32h-960c-17.673 0-32 14.327-32 32s14.327 32 32 32zM882.28 0h-0.125l-743.191 3.444c-17.285 0.063-31.251 14.216-31.188 31.439 0.814 167.401 101.205 335.616 238.42 413.587-137.152 78.847-236.541 248.19-235.789 416.342 0.063 8.329 3.382 16.283 9.269 22.107s13.778 9.081 22.045 9.081h0.188l743.191-3.444c17.285-0.063 31.251-14.154 31.125-31.439-0.752-167.464-101.142-335.616-238.42-413.524 137.215-78.91 236.541-248.315 235.789-416.405 0-8.267-3.382-16.283-9.269-22.107s-13.778-9.081-22.045-9.081v0zM172.976 67.184l675.613-3.184c-12.672 155.498-123.037 310.059-257.373 354.193-12.859 4.245-21.474 16.23-21.474 29.714 0.062 13.484 8.802 25.469 21.661 29.589 134.211 43.26 245.513 196.635 259.621 351.321l-675.675 3.184c12.734-155.435 123.037-310.059 257.373-354.068 12.859-4.245 21.536-16.293 21.474-29.714 0-13.546-8.802-25.531-21.599-29.651-134.211-43.26-245.45-196.697-259.621-351.384v0z" />
<glyph unicode="&#xe93c;" glyph-name="tz-today" d="M511.882 897.539v0l213.899-451.448-213.899-452.228-213.924 452.228 213.924 451.448z" />
<glyph unicode="&#xe93d;" glyph-name="tz-tool" d="M767.224 14.162l-695.099 690.169c-5.175 5.194-8.125 12.211-8.125 19.56 0 7.293 2.949 14.311 8.125 19.504l132.72 131.724c10.851 10.774 28.436 10.774 39.343 0l695.044-690.114c10.907-10.774 10.907-28.29 0-39.064l-132.609-131.779c-5.231-5.194-12.298-8.122-19.699-8.122s-14.468 2.928-19.699 8.122zM131.167 713.903l655.756-651.161 93.322 92.715-655.756 651.105-93.322-92.66zM774.644 88.978l-39.343 39.119 39.343 39.009 39.343-39.009-39.343-39.119zM617.216 245.289l-39.343 39.064 39.343 39.064 39.343-39.064-39.343-39.064zM459.843 401.601l-39.343 39.064 39.343 39.064 39.343-39.064-39.343-39.064zM302.415 557.857l-39.343 39.064 39.343 39.064 39.343-39.064-39.343-39.064zM232.021 12.894v0c-7.401 0-14.468 2.928-19.699 8.122l-96.271 95.588c-10.851 10.83-10.851 28.29 0 39.064l269.782 267.868c10.907 10.83 28.492 10.83 39.343 0 10.907-10.774 10.907-28.29 0-39.064l-250.082-248.308 56.928-56.524 250.082 248.364c10.907 10.774 28.492 10.774 39.343 0 10.907-10.83 10.907-28.29 0-39.119l-269.782-267.868c-5.231-5.194-12.243-8.122-19.644-8.122zM634.467 412.541c-7.123 0-14.246 2.707-19.644 8.067-10.907 10.83-10.907 28.29 0 39.064l223.26 221.732-56.928 56.524-223.26-221.676c-10.907-10.83-28.492-10.83-39.343 0-10.907 10.774-10.907 28.29 0 39.064l242.959 241.236c5.231 5.194 12.298 8.067 19.644 8.067 7.401 0 14.468-2.873 19.699-8.067l96.271-95.588c10.851-10.83 10.851-28.29 0-39.119l-242.959-241.236c-5.454-5.36-12.576-8.067-19.699-8.067zM390.172 169.924c-7.123 0-14.246 2.707-19.699 8.122l-96.271 95.588c-10.851 10.83-10.851 28.29 0 39.064s28.492 10.774 39.343 0l96.271-95.588c10.851-10.83 10.851-28.29 0-39.064-5.454-5.415-12.521-8.122-19.644-8.122zM877.426 653.777c-3.172 0-6.455 0.553-9.627 1.713-14.413 5.304-21.814 21.162-16.472 35.473l35.503 95.367-95.993-35.196c-14.357-5.36-30.439 1.989-35.782 16.355-5.287 14.311 2.059 30.168 16.472 35.417l152.698 56.027c10.128 3.923 21.647 1.271 29.326-6.354s10.184-19.007 6.455-29.119l-56.427-151.615c-4.174-11.161-14.858-18.068-26.155-18.068z" />
<glyph unicode="&#xe93e;" glyph-name="tz-un" d="M420.077 320h-328.154c-15.469 0-27.923 12.816-27.923 28.607v454.787c0 15.848 12.454 28.607 27.923 28.607h328.154c15.414 0 27.923-12.759 27.923-28.607v-454.787c0-15.791-12.51-28.607-27.923-28.607v0zM128 384h256v384h-256v-384zM932.077 64h-328.154c-15.469 0-27.923 13.376-27.923 29.917v452.225c0 16.481 12.454 29.858 27.923 29.858h328.154c15.469 0 27.923-13.376 27.923-29.858v-452.225c0-16.541-12.454-29.917-27.923-29.917v0zM640 128h256v384h-256v-384zM591.638 349.176c-6.178 0-12.472 1.963-17.727 6.063l-162.833 127.033c-12.588 9.816-14.782 28.005-5.024 40.535 9.816 12.53 27.947 14.897 40.535 5.024l162.833-127.033c12.588-9.816 14.782-27.947 4.966-40.535-5.659-7.276-14.147-11.087-22.75-11.087z" />
<glyph unicode="&#xe93f;" glyph-name="tz-undo" d="M636.288 704h-537.6v-62.72l536.173-0.161c144.073 0 261.248-115.323 261.248-257.119s-117.175-257.119-261.248-257.119h-346.861v-62.881h346.861c179.277 0 325.139 143.557 325.139 320 0 175.975-145.089 319.238-323.712 319.997zM241.104 493.936c-8.192 0-16.384 3.136-22.592 9.408l-145.152 145.152c-12.48 12.48-12.48 32.768 0 45.248l148.032 148.096c12.544 12.48 32.768 12.48 45.312 0 12.48-12.544 12.48-32.768 0-45.248l-125.44-125.44 122.496-122.56c12.48-12.544 12.48-32.768 0-45.248-6.272-6.272-14.464-9.408-22.656-9.408zM127.232 128h47.808v-64h-47.808v64zM207.808 128h47.808v-64h-47.808v64z" />
<glyph unicode="&#xe940;" glyph-name="tz-unhappy" d="M960 448.006c0 247.43-200.57 447.999-448.001 447.999-247.43 0-447.999-200.57-447.999-447.999 0-247.441 200.57-448.011 447.999-448.011 101.574 0 194.58 34.558 269.73 91.508 3.087 3.502 5.114 7.97 5.114 12.993 0 10.966-8.893 19.859-19.858 19.859-5.69 0-10.76-2.257-14.377-6.083h-0.253c-67.246-49.484-150.025-79.112-239.918-79.112-224.047 0-405.701 181.679-405.701 405.713 0 224.070 181.655 405.701 405.701 405.701 224.070 0 405.701-181.631 405.701-405.701 0-68.447-16.059-132.86-46.007-189.419v-0.334c-0.555-1.89-1.154-3.732-1.154-5.759 0-10.966 8.893-19.86 19.859-19.86 8.546 0 15.688 5.483 18.476 13.039v-0.138c31.91 61.637 50.686 131.421 50.686 205.604v0zM394.622 568.403c0 25.018-20.274 45.293-45.294 45.293s-45.27-20.274-45.27-45.293c0-25.019 20.25-45.271 45.27-45.271 25.018 0 45.294 20.251 45.294 45.271v0zM675.916 613.625c-24.994 0-45.268-20.249-45.268-45.27 0-25.019 20.273-45.294 45.268-45.294 25.019 0 45.295 20.274 45.295 45.294s-20.274 45.27-45.295 45.27v0zM687.484 254.612c-1.96 0-3.709 0.646-5.556 1.129 0 0-109.315 40.202-169.72 40.202-59.484 0-115.581-16.796-166.497-39.81 0 0-5.069-1.521-7.764-1.521-12.37 0-22.392 9.998-22.392 22.37 0 8.456 4.7 15.85 11.589 19.651 56.444 25.665 118.577 44.752 184.626 44.752 65.636 0 129.361-19.457 185.529-44.821 0.321-0.155 12.416-11.619 12.416-19.743 0 0-9.952-22.209-22.23-22.209z" />
<glyph unicode="&#xe941;" glyph-name="tz-unionpay" d="M675.986 523.46c7.442 3.662 13.213 11.19 15.209 20.115 2.164 9.811-0.916 17.403-8.447 20.266-0.483 0-19.536 1.678-19.536 1.678l-3.675 0.393-0.214-1.592-0.214-2.063c0.023 0.126-9.256-40.138-9.256-40.138l-0.382-1.983h5.031c7.773 0 15.265 0.219 21.486 3.324v0zM680.781 398.407l-7.003-23c0 0 7.812 3.499 12.106 4.679 4.361 1.124 10.836 1.555 10.836 1.555l5.047 16.767-20.987-0.001zM741.647 465.96c3.17 0 8.621 2.017 10.915 5.269 1.305 1.691 2.468 4.267 3.452 6.978 0.916 3.671 1.815 7.346 2.672 11.034 0.624 2.685 1.171 5.123 1.654 7.366 0.575 8.84-2.446 13.962-8.061 13.962-8.947 0-12.398-10.937-15.388-23.699-1.001-4.58-1.855-8.809-1.799-12.806 0.192-8.106 5.678-8.106 6.554-8.106v0zM460.541 467.182c3.181 0 6.052 2.067 8.433 5.46 3.447 4.591 6.002 15.475 6.579 18.308 3.056 13.159 2.632 21.297-4.376 21.297-8.903 0-12.435-10.967-15.355-24.069-1.076-4.484-1.888-8.689-1.821-12.741 0.127-8.256 5.637-8.256 6.539-8.256v0zM653.438 308.091h21.059l6.092 20.202h-21.018l-6.133-20.202zM663.093 340.022c0 0 7.986 4.085 12.285 5.369 4.272 0.973 10.882 1.791 10.882 1.791l5.114 16.76h-21.092l-7.189-23.92zM588.103 362.517l2.62 8.073h-31.076l-1.91-8.202h24.993c4.182 0.523 5.064-0.123 5.373 0.129v0zM599.254 397.82h-33.268l-3.117-13.391c3.061 1.299 6.725 2.49 10.937 3.211 3.080 0.646 22.514 0.435 22.514 0.435l2.935 9.746zM547.435 357.087h0.582l1.875 6.4-2.458-6.4zM542.933 346.244l-10.954-36.141c-0.992-3.591-1.52-5.301-0.806-6.256 0.398-0.616 1.215-1.313 2.329-1.651l10.254 44.048h-0.822v-0.001zM915.144 727.375h-193.652c-2.261 0.49-4.916 0.749-8.028 0.749h-256.824c-2.169 0-4.336-0.136-6.496-0.374h-210.847c-31.268 0-62.474-25.511-69.73-56.773l-104.035-446.456c-7.275-31.202 12.103-56.643 43.276-56.643h223.409c2.166 0 4.332 0.136 6.492 0.374h220.093c-31.274 0-50.638 25.441-43.292 56.643l13.712 58.903h-2.248c-6.064 0-10.498 0.123-13.603 0.402-2.957 0.241-6.048 0-8.097 1.582-1.815 1.587-4.527 3.594-4.434 5.755 0.203 1.973 1.013 5.193 2.246 9.633l34.831 115.58h22.257l8 34.362c-3.985-0.062-8.23-0.221-14.789-0.537l-0.461 0.944c1.107 4.993 2.36 9.928 3.541 15.016l1.596 6.801c2.434 10.636 4.794 23.003 5.074 26.788 0.213 2.253 0.995 7.888-5.451 7.888-2.771 0-5.592-1.315-8.459-2.588-1.585-5.696-4.822-21.551-6.406-28.828-3.165-15.262-3.351-16.97-4.817-24.529l-0.975-1.006c-11.573 0.15-15.577 0.15-28.82-0.486l-0.64 1.092c2.25 9.055 4.403 18.255 6.55 27.245 5.539 24.622 6.849 34.009 8.442 46.505l1.020 0.754c13.003 1.767 16.139 2.177 30.212 5.091l1.125-1.368-2.063-7.834c2.31 1.402 4.671 2.838 7.031 4.112 6.614 3.234 14.051 4.206 18.063 4.206 2.79 0 5.715-0.362 8.349-1.425l33.151 142.4c6.625 28.151 32.567 51.63 60.476 56.024h10.223c-27.91-4.395-53.852-27.873-60.476-56.024l-35.319-151.716c1.637-6.059-0.101-13.761-3.308-27.675l-1.776-7.868c-3.653-17.122-4.221-20.266-6.188-32.024l-1.377-1.006c-1.178 0.016-2.271 0.029-3.305 0.042l-9.339-40.118c1.196 0.684 2.379 1.293 3.467 1.743 5.491 2.035 17.89 3.901 17.89 3.901l40.229 0.213-13.707-45.642c-2.288-7.866-4.975-12.89-6.655-15.217-1.489-2.338-3.311-4.316-6.784-6.238-3.433-1.799-6.536-2.893-9.392-3.17-2.636-0.21-6.732-0.306-12.36-0.331h-27.761l-10.1-43.385 8.076 0.778-5.828-19.84h-6.684l-13.712-58.903c-7.345-31.203 12.018-56.643 43.292-56.643h223.258c0.665 0 1.329 0.027 1.995 0.050 27.814 4.505 53.624 27.848 60.16 55.845l104.008 446.455c7.361 31.262-12.096 56.773-43.3 56.773v0zM249.895 459.775c-9.934-6.098-24.654-9.417-40.436-9.417-12.186 0-33.732 1.951-41.35 15.209-2.384 4.172-3.542 9.113-3.542 15.11l2.709 20.359 1.473 6.304 16.577 73.388c0 0 0.851 4.078 1.032 4.724 0.362-0.494 5.976-0.77 37.691-0.494-0.087-0.244-0.179-0.427-0.261-0.948-2.94-8.596-19.18-73.802-19.18-73.802-0.053-0.061-3.103-19.477-3.103-19.477l0.178-3.254c1.011-9.636 6.977-14.728 17.125-14.728 6.34 0 11.763 1.931 16.515 5.795 8.201 6.618 10.603 16.947 13.933 31.45 0.067 0 15.577 71.545 16.456 75.456 2.19-0.494 8.933-0.739 31.872-0.494-0.121-0.244-0.18-0.427-0.242-0.948-2.866-8.801-19.657-76.541-19.657-76.541l-1.891-7.25c-3.989-14.173-8.595-30.227-25.9-40.443v0zM367.751 491.959l-1.809-7.868c-3.585-17.122-4.192-20.266-6.232-32.024l-1.31-1.006c-9.522 0.128-13.806 0.148-22.892-0.24l-52.61-225.927c-7.343-31.203 12.005-56.643 43.265-56.643h-12.129c-31.273 0-50.638 25.44-43.292 56.643l65.838 282.811c-0.642 0.192-1.391 0.307-2.291 0.307-2.741 0-5.54-1.315-8.437-2.588-1.585-5.697-4.749-21.552-6.286-28.829-3.242-15.262-3.465-16.97-4.892-24.529l-0.984-1.006c-11.56 0.151-15.551 0.151-28.932-0.486l-0.604 1.092c2.252 9.055 4.48 18.255 6.61 27.245 5.597 24.622 6.887 34.009 8.484 46.505l1.037 0.754c12.945 1.767 16.141 2.178 30.167 5.091l1.157-1.368-2.107-7.834c2.367 1.402 4.673 2.838 7.107 4.112 1.549 0.756 3.138 1.383 4.716 1.909l33.354 143.271c6.624 28.151 32.566 51.63 60.476 56.024h12.188c-27.91-4.395-53.84-27.873-60.478-56.024l-32.833-140.986c0.222 0.005 0.441 0.010 0.647 0.010 6.123 0 12.89-1.698 15.694-8.829 2.65-6.377 0.897-14.175-2.621-29.588v0zM414.893 496.947c-1.253-5.356-2.56-10.69-3.757-16.023-2.526-11.308-3.529-15.516-4.089-18.559-0.63-2.866-0.748-4.451-1.737-10.299l-0.623-0.547-0.632-0.458c-6.764 0.033-11.167 0.151-15.388 0.033-4.232-0.033-8.346-0.25-14.618-0.52l-0.388 0.52-0.362 0.573c1.671 6.461 2.636 8.751 3.465 11.062 0.843 2.318 1.663 4.634 3.195 11.22 1.964 8.554 3.165 14.593 4.027 19.862 0.885 5.119 1.406 9.448 2.077 14.475l0.491 0.403 0.561 0.48c6.719 0.979 11.024 1.559 15.377 2.231 4.418 0.67 8.858 1.521 15.818 2.836l0.261-0.612 0.194-0.576c-1.29-5.339-2.566-10.668-3.873-16.101v0zM416.38 519.995c-7.464-5.216-18.62-6.32-24.872-2.627-6.331 3.751-5.446 10.906 2.087 16.028 7.473 5.173 18.525 6.34 24.839 2.595 6.3-3.689 5.351-10.85-2.054-15.996v0zM426.289 488.997c2.444 10.361 6.432 21.21 15.006 29.135 12.025 11.128 27.354 11.76 33.797 11.76 10.706 0 21.003-2.414 26.91-9.877 3.877-4.969 6.868-13.003 2.95-30.284-1.201-5.215-4.679-17.829-12.326-26.331-9.847-10.51-22.993-14.019-35.848-14.019-5.013 0-12.744 0.618-18.21 2.928-17.517 7.073-14.68 26.145-12.279 36.689v0zM514.194 359.743h-28.477l-4.427-14.475h29.122l-5.339-17.554h-29.091l-7.057-23.518c-0.831-2.599 6.876-3.027 9.685-3.027l14.559 2.040-5.817-19.412h-32.82c-2.647 0-4.622 0.402-7.464 1.040-2.768 0.672-3.959 1.911-5.232 3.802-1.195 1.926-3.021 3.519-1.78 7.598l9.434 31.204h-16.166l5.35 17.827h16.262l4.294 14.475h-16.122l5.139 16.97h71.191l-5.247-16.971zM525.385 407.236l-5.357-17.765h-39.867l-4.358-3.712c-1.798-1.835-2.498-1.065-4.914-2.38-2.239-1.124-6.984-3.383-13.154-3.383h-12.761l5.154 17.068h3.875c3.274 0 5.482 0.279 6.572 1.029 1.273 0.77 2.711 2.596 4.319 5.55l7.315 13.287h29.078l-5.125-9.693 29.223-0.001zM754.518 528.22c4.708-1.821 7.773-4.727 9.872-8.138 0.138 1.026 0.279 2.065 0.425 3.138l1.006 0.824c13.466 1.953 17.159 2.464 31.175 5.088l0.489-1.197c-2.596-10.569-5.154-21.205-7.593-31.838-5.148-22.273-7.076-33.615-9.054-45.254l-1.22-0.944c-13.556 0.099-17.423 0.099-30.018-0.424l-0.815 1.009c0.416 1.562 0.83 3.122 1.246 4.684-4.568-3.834-9.496-6.49-14.807-6.796-5.030-0.169-10.066 0.528-15.607 2.841-17.411 6.83-14.618 25.873-12.185 36.298 2.36 10.327 6.463 21.081 14.961 28.945 12.061 11.023 26.146 14.050 32.126 11.765v0zM600.197 450.698c0.989 4.018 21.79 89.771 21.79 89.771 0 0.025 8.649 40.374 8.649 40.374s0.697 3.166 1.046 4.941c4.002-0.49 13.702-0.616 38.004-0.332 0 0 9.285 0.11 9.34 0.11 19.009-0.11 35.386-0.267 43.67-11.817 3.293-4.389 4.395-9.903 4.395-15.512 0-4.234-0.64-8.564-1.506-12.193-3.383-14.624-10.932-26.66-21.875-34.857-16.175-11.879-36.851-11.879-55.135-11.879h-1.933c-1.377-0.773-2.686-2.568-2.686-2.568-0.241-0.637-4.418-18.191-4.418-18.191-0.067 0-4.979-23.951-5.856-27.97-3.591 0.359-12.336 0.359-33.486 0.122v0zM608.15 332.039c-0.994-3.406-1.86-6.006-4.423-8.226-2.715-2.284-5.902-4.734-13.365-4.734l-13.803-0.534-0.101-12.373c-0.186-3.577 0.73-3.173 1.304-3.74 0.623-0.622 1.197-0.902 1.799-1.111l4.361 0.207 13.174 0.734-5.367-18.063h-15.169c-10.646 0-18.48 0.241-21.031 2.284-2.564 1.582-2.923 3.645-2.844 7.073l0.978 48.398h24.168l-0.35-9.917h5.841c1.972 0 3.282 0.192 4.164 0.767 0.675 0.547 1.236 1.307 1.618 2.526l2.361 7.686h18.985l-2.299-10.977zM692.741 283.922h-25.88l1.776 5.83h-52.702l5.328 17.209h5.339l27.59 91.446 5.502 18.465h26.431l-2.77-9.33c0 0 7.070 5.093 13.753 6.826 5.46 1.411 32.64 2.115 41.889 2.317l-0.002 0.063h28.219l0.275-10.513c-0.112-1.776 1.411-2.594 4.665-2.594h5.732l-5.249-17.364h-15.253c-13.208-0.978-18.17 4.687-17.861 11.065l-0.279 10.26-2.858-9.196h-9.059l-27.212-90.077h7.317l-5.665-18.578h-7.289l-1.737-5.83zM809.573 363.976h-28.309l-4.446-14.074h28.394l-4.654-15.455h-30.715l-5.491-6.559h12.465l3.041-19.437c0.342-1.939 0.41-3.193 0.978-4.029 0.641-0.714 4.333-1.060 6.58-1.060h3.726l-5.732-18.921h-9.571c-1.523 0-3.687 0.096-6.7 0.27-2.9 0.222-4.934 1.922-6.89 2.869-1.743 0.852-4.35 2.985-4.969 6.618l-3.012 19.407-13.933-19.128c-4.446-6.045-10.47-10.68-20.621-10.68h-19.535l5.116 16.917h7.464c2.169 0 4.085 0.883 5.463 1.549 1.494 0.638 2.743 1.375 4.17 3.485l20.301 28.7h-26.849l4.597 15.455h30.715l4.423 14.074h-30.388l5.249 17.428h84.439l-5.305-17.429zM815.553 397.671c-3.479-6.365-9.852-11.155-20.058-11.178l-17.372 0.267 5.103 16.796h3.372c1.776 0 3.053 0.177 4.058 0.638 0.882 0.267 1.517 0.948 2.247 1.947l6.104 9.874c8.621 13.132 10.814 18.794 19.862 33.736-1.613 16.728-2.383 22.15-3.688 33.092-0.787 6.547-1.799 13.255-2.586 19.87-1.652 13.532-1.315 11.608-2.957 20.173l-0.095 0.242c0.061 0.492 0.095 0.978 0.18 1.464l1.096 0.916c13.41 1.7 13.781 2.158 28.282 4.931l1.225-1.18 1.888-37.372c0.056-0.786 0.056-1.306 0.118-2.095 7.738 17.219 7.435 12.465 16.944 34.432l0.068-0.211c0.055 0.211 0.078 0.421 0.146 0.579l0.909 0.916c12.775 1.7 15.271 2.158 29.158 4.931l1.039-1.179-75.045-131.591z" />
<glyph unicode="&#xe942;" glyph-name="tz-up" d="M88.38 230.386c-8.384 0-16.832 3.52-22.976 10.304-11.328 12.672-10.176 32.128 2.496 43.52l425.536 380.032c12.096 10.816 30.784 10.24 42.304-1.216 1.28-1.344 2.432-2.688 3.392-4.16l419.84-373.696c12.672-11.328 13.824-30.784 2.496-43.52-11.264-12.672-30.72-13.888-43.52-2.496l-404.672 360.32-404.352-361.28c-5.888-5.248-13.184-7.808-20.544-7.808z" />
<glyph unicode="&#xe943;" glyph-name="tz-upload" d="M512 395.844c-14.55 0-26.358-11.756-26.358-26.358v-343.338c0-14.602 11.808-26.411 26.358-26.411 14.602 0 26.358 11.808 26.358 26.411v343.338c0 14.602-11.756 26.358-26.358 26.358zM513.292 403.2c-6.748 0-13.443-2.53-18.609-7.697l-80.181-80.075c-10.28-10.332-10.28-26.99 0-37.323 10.332-10.28 26.99-10.28 37.27 0l61.519 61.467 58.936-58.884c10.28-10.28 26.938-10.28 37.27 0 10.28 10.332 10.28 26.99 0 37.27l-77.545 77.545c-5.166 5.166-11.914 7.697-18.661 7.697zM721.387 159.361c-14.55 0-26.358 11.808-26.358 26.358 0 14.602 11.808 26.358 26.358 26.358 109.122 0 197.895 88.773 197.895 197.895 0 76.912-45.283 147.446-115.342 179.708-10.543 4.85-16.658 16.026-15.129 27.518 10.227 75.542-22.615 148.711-85.821 190.937-90.566 60.676-213.604 36.11-274.228-54.455-5.113-7.749-9.436-15.762-13.39-23.933-3.11-6.484-8.751-11.281-15.498-13.548-6.8-2.267-14.233-1.634-20.506 1.74-64.63 34.16-139.064-16.447-139.064-83.713 0-4.165 0.685-8.171 1.318-12.177 1.74-11.914-4.586-24.882-15.657-29.574-73.644-30.997-121.246-102.638-121.246-182.502 0-109.122 88.773-197.895 197.895-197.895 14.55 0 26.358-11.756 26.358-26.358 0-14.55-11.808-26.358-26.358-26.358-138.168 0-250.611 112.443-250.611 250.611 0 94.519 52.61 179.919 135.638 222.724-0.053 0.474-0.053 1.002-0.053 1.529 0 81.499 66.316 147.815 147.815 147.815 15.024 0 29.89-2.425 44.439-7.169 1.634 2.741 3.321 5.377 5.113 8.066 76.754 114.762 232.582 145.812 347.344 69.058 74.751-49.975 116.027-134.109 110.598-223.040 79.021-43.912 129.101-127.889 129.101-218.981 0-138.168-112.39-250.611-250.611-250.611z" />
<glyph unicode="&#xe944;" glyph-name="tz-video" d="M886.182 224h-748.364c-40.727 0-73.818 32.748-73.818 73.075v525.851c0 40.271 33.091 73.075 73.818 73.075h748.364c40.727 0 73.818-32.803 73.818-73.075v-525.851c0-40.327-33.091-73.075-73.818-73.075v0zM133.053 848c-11.386 0-21.053-8.344-21.053-18.22v-539.56c0-9.876 9.667-18.22 21.053-18.22h757.895c11.386 0 21.053 8.344 21.053 18.22v539.56c0 9.876-9.667 18.22-21.053 18.22h-757.895zM464.296 396.191c-3.775 0-7.55 0.755-11.055 2.373-9.707 4.368-15.908 14.021-15.908 24.59v273.728c0 10.569 6.201 20.222 15.908 24.59 9.599 4.26 20.977 2.642 28.904-4.422l154.552-136.864c5.77-5.123 9.113-12.457 9.113-20.168 0-7.765-3.343-15.045-9.113-20.168l-154.552-136.864c-5.015-4.476-11.378-6.795-17.849-6.795v0zM491.259 637.024v-154.012l86.929 77.006-86.929 77.006zM537.723 110.067v-100.654h-53.926v98.453l-172.239-152.864-35.807 40.337 208.046 184.689v59.973h53.926v-57.817l210.527-186.845-35.807-40.337-174.72 155.066z" />
<glyph unicode="&#xe945;" glyph-name="tz-wechat" d="M658.788 589.948c10.066 0 20.027-0.721 29.904-1.826-26.875 125.139-160.66 218.116-313.378 218.116-170.741 0-310.592-116.356-310.592-264.129 0-85.328 46.529-155.34 124.284-209.682l-31.064-93.426 108.577 54.438c38.849-7.677 70.023-15.596 108.793-15.596 9.747 0 19.408 0.487 28.996 1.238-6.066 20.752-9.587 42.497-9.587 65.080 0.002 135.686 116.525 245.787 264.067 245.787v0zM489.598 680.464c26.52 0 48.017-21.498 48.017-48.019s-21.497-48.018-48.017-48.018c-26.522 0-48.019 21.498-48.019 48.018s21.499 48.019 48.019 48.019v0zM272.288 583.459c-26.52 0-48.019 21.498-48.019 48.018s21.499 48.018 48.019 48.018c26.522 0 48.020-21.498 48.020-48.018s-21.498-48.018-48.020-48.018v0zM940.071 346.881c0 124.172-124.253 225.391-263.813 225.391-147.78 0-264.168-101.218-264.168-225.391 0-124.387 116.387-225.385 264.168-225.385 30.926 0 62.127 7.807 93.191 15.593l85.196-46.662-23.364 77.617c62.346 46.77 108.79 108.79 108.79 178.836v0zM595.1 381.691c-18.886 0-34.194 15.311-34.194 34.195 0 18.886 15.309 34.193 34.194 34.193s34.194-15.309 34.194-34.193c0.002-18.885-15.309-34.195-34.194-34.195v0zM765.842 379.751c-18.887 0-34.195 15.31-34.195 34.193 0 18.887 15.308 34.193 34.195 34.193 18.885 0 34.194-15.308 34.194-34.193 0.001-18.883-15.309-34.193-34.194-34.193v0z" />
<glyph unicode="&#xe946;" glyph-name="tz-wechatpay" d="M343.999 357.859l-67.213 156.222c-25.858 74.234 22.382 33.471 22.382 33.471l102.205-91.632 477.192 237.868c-81.065 100.475-214.98 166.171-366.586 166.171-247.424 0-447.98-174.839-447.98-390.523 0-124.059 66.41-234.475 169.851-306.043l-18.657-106.811c0 0-9.092-31.178 22.423-16.714 21.478 9.856 76.227 45.198 108.817 66.7 51.232-17.781 107.052-27.658 165.566-27.658 247.405 0 448 174.839 448 390.526 0 62.477-16.906 121.474-46.848 173.843-139.99-83.898-465.611-278.873-507.571-302.137-53.631-29.78-61.582 16.716-61.582 16.716z" />
<glyph unicode="&#xe947;" glyph-name="tz-alipay" d="M483.353 307.756c-138.018-178.087-307.201-124.661-333.913-111.304-66.783 17.809-89.044 138.018-4.452 178.087 138.017 44.521 262.678-4.452 351.721-48.974-8.904-13.357-13.356-17.809-13.356-17.809v0zM630.275 356.73c62.33 111.304 84.591 218.156 84.591 218.156h-209.252v80.14h244.87v31.165h-244.87v120.209h-111.304v-120.209h-222.609v-35.617h222.609v-80.139h-186.992v-35.617h382.887c0-4.452 0-4.452-4.453-13.357 0-40.069-26.713-93.496-48.973-138.018-284.939 111.305-365.079 44.522-387.339 35.617-186.991-133.565-13.357-302.747 17.809-298.295 200.348-44.522 329.461 40.069 418.504 146.922 4.453-4.452 13.357-4.452 17.809-4.452 62.331-35.617 356.174-173.635 356.174-173.635v169.182c-53.426 4.453-213.704 57.879-329.461 97.948v0z" />
<glyph unicode="&#xe948;" glyph-name="tz-zhihu" d="M375.839 409.968h165.013c0 38.8-18.291 61.525-18.291 61.525h-143.21c3.402 70.285 6.45 160.492 7.54 193.997h136.224c0 0-0.739 57.645-15.889 57.645h-239.448c0 0 14.411 75.382 33.627 108.661 0 0-71.502 3.858-95.89-91.478s-60.971-152.981-64.851-163.512c-3.88-10.531 21.063-4.988 31.593 0s58.199 22.171 72.056 88.684h74.038c0.997-42.152 3.931-171.334 3.006-193.997h-152.426c-21.617-15.52-28.823-61.525-28.823-61.525h174.218c-7.267-48.111-20.027-110.123-37.866-143.004-28.268-52.102-43.234-99.77-145.221-181.803 0 0-16.628-12.194 34.919-7.76s100.324 17.737 134.135 85.358c17.578 35.156 35.753 79.751 49.934 124.982l-0.047-0.158 143.556-165.286c0 0 18.846 44.342 4.988 93.119l-106.421 119.17-36.026-26.647-0.039-0.13c10.006 35.082 17.201 69.766 19.437 99.941 0.053 0.726 0.108 1.468 0.161 2.217v0zM575.218 735.33v-572.015h60.139l24.637-68.857 104.232 68.857h131.364v572.015h-320.372zM833.696 224.84h-68.28l-85.163-56.259-20.13 56.259h-21.257v446.655h194.829v-446.655h0.001z" />
<glyph unicode="&#xe949;" glyph-name="tz-coupon" d="M234.442 105.716v708.346l-22.4-22.4h593.392l-22.4 22.4v-708.346l33.529 19.44-285.037 163.186c-6.665 3.816-14.819 3.951-21.607 0.359l-308.355-163.186 32.878-19.798zM189.642 105.716c0-16.879 17.959-27.693 32.878-19.798l308.355 163.186-21.607 0.359 285.037-163.186c14.933-8.549 33.529 2.232 33.529 19.44v708.346c0 12.371-10.029 22.4-22.4 22.4h-593.392c-12.371 0-22.4-10.029-22.4-22.4v-708.346zM332.303 595.2h352.87c12.371 0 22.4 10.029 22.4 22.4s-10.029 22.4-22.4 22.4h-352.87c-12.371 0-22.4-10.029-22.4-22.4s10.029-22.4 22.4-22.4v0zM332.303 467.2h352.87c12.371 0 22.4 10.029 22.4 22.4s-10.029 22.4-22.4 22.4h-352.87c-12.371 0-22.4-10.029-22.4-22.4s10.029-22.4 22.4-22.4v0z" />
<glyph unicode="&#xe94a;" glyph-name="tz-verify" d="M764.615 553.888l-155.799-189.636c-7.853-9.559-6.471-23.674 3.088-31.527s23.674-6.471 31.527 3.088l155.799 189.636c7.853 9.559 6.471 23.674-3.088 31.527s-23.674 6.471-31.527-3.088v0zM853.044 188.89c-27.534 22.609-68.187 18.639-90.794-8.894l31.566 3.064-18.368 15.153-14.255-17.279 19.096-11.709 2.214 3.61c7.578 8.834 5.847 6.656 9.955 13.132 13.839 21.816 19.089 45.258 8.752 68.729-3.959 8.99-10.091 17.238-18.322 24.614-29.945 24.633-73.102 20.406-97.11-8.812l31.519 3.093-20.74 17.024 3.095-31.535c24.008 29.217 19.781 72.374-9.437 96.382s-72.374 19.781-96.382-9.437l34.609-28.448 14.995 18.236c7.857 9.556 6.48 23.672-3.075 31.529s-23.672 6.48-31.529-3.075l-14.995-18.236c-18.969-23.069 15.647-51.523 34.609-28.448 8.301 10.103 23.227 11.565 33.327 3.266 10.103-8.301 11.565-23.227 3.266-33.327-7.857-9.562-6.471-23.683 3.095-31.535l20.74-17.024c9.559-7.846 23.667-6.462 31.519 3.093 8.301 10.103 23.227 11.565 33.327 3.266 2.881-2.61 5.178-5.7 6.492-8.682 3.113-7.069 1.072-16.184-5.583-26.674-2.61-4.115-0.855-1.908-8.494-11.159l-4.037-6.163c-5.836-9.519-3.771-21.882 4.842-28.988l18.368-15.153c9.558-7.885 23.703-6.512 31.566 3.064 6.899 8.402 19.32 9.615 27.741 2.701 9.561-7.851 23.676-6.464 31.527 3.097s6.464 23.676-3.097 31.527v0zM515.266 427.259l-36.183-44.457-39.122-47.619 17.343 8.181-33.943 0.053c-12.371 0.019-22.416-9.994-22.435-22.365s9.994-22.416 22.365-22.435l33.943-0.053c6.715-0.010 13.080 2.992 17.343 8.181l39.187 47.699 36.248 44.537c7.809 9.595 6.361 23.704-3.234 31.513s-23.704 6.361-31.513-3.234v0zM819.209 646.030c-3.369 4.584-7.301 8.74-11.752 12.423-34.524 28.361-87.382 17.864-118.768-20.355l-34.575-40.26-138.837-170.588c-7.809-9.595-6.361-23.704 3.235-31.513s23.704-6.361 31.513 3.235l138.458 170.135 34.512 40.183c17.101 20.816 42.3 25.82 55.962 14.597 1.571-1.301 2.97-2.779 4.155-4.391 7.327-9.968 21.347-12.109 31.315-4.782s12.109 21.347 4.782 31.315v0zM751.395 468.061l58.846 69.809c27.099 33.004 31.316 77.838 8.94 108.186-7.342 9.957-21.365 12.078-31.322 4.736s-12.078-21.365-4.736-31.322c9.401-12.751 7.295-35.146-7.321-52.949l-58.66-69.585c-7.973-9.459-6.769-23.591 2.69-31.564s23.591-6.769 31.564 2.69v0zM440.414 335.496l-95.108 112.395c-15.411 14.679-31.218 22.502-48.415 25.593-25.268 4.541-50.934-1.159-75.73-13.079-11.1-5.336-19.648-10.725-24.868-14.624-9.382-7.007-11.784-20.057-5.511-29.946l73.92-116.533-2.772 6.392c1.891-7.314 4.778-19.515 7.662-33.77 1.613-7.975 3.027-15.685 4.184-22.957 2.603-16.366 3.74-29.588 3.153-37.724-0.2-3.662-0.72-9.724-1.736-17.62-1.693-13.162-4.168-26.293-7.526-38.354-5.83-20.94-13.659-35.746-21.735-41.479-10.088-7.161-12.461-21.144-5.3-31.232s21.144-12.461 31.232-5.3c18.526 13.151 30.614 36.011 38.961 65.995 3.996 14.351 6.855 29.519 8.801 44.656 1.168 9.083 1.781 16.228 2.012 20.522 0.867 11.969-0.518 28.077-3.619 47.575-1.262 7.933-2.786 16.248-4.517 24.803-3.063 15.141-6.124 28.076-8.198 36.1l-2.772 6.392-73.92 116.533-5.511-29.946c3.070 2.293 9.251 6.19 17.469 10.14 17.072 8.207 33.958 11.957 48.396 9.362 8.763-1.575 16.645-5.476 23.903-12.295l93.345-110.539c7.991-9.444 22.125-10.621 31.569-2.63s10.621 22.125 2.63 31.569v0zM946.824 448v0 0c0 240.154-194.669 434.824-434.824 434.824s-434.824-194.669-434.824-434.824c0-240.154 194.669-434.824 434.824-434.824s434.824 194.669 434.824 434.824v0zM1006.252 448v0c0-272.976-221.276-494.252-494.252-494.252s-494.252 221.276-494.252 494.252c0 272.976 221.276 494.252 494.252 494.252s494.252-221.276 494.252-494.252v0z" />
<glyph unicode="&#xe94b;" glyph-name="tz-warn" d="M802.916 388.428l-257.883 456.122c-12.251 21.668-43.463 21.667-55.713-0.001l-437.177-773.309c-12.060-21.332 3.352-47.748 27.857-47.748h874.378c24.504 0 39.916 26.415 27.857 47.747l-90.567 160.221c-8.697 15.385-28.219 20.807-43.604 12.111s-20.807-28.219-12.111-43.604l90.567-160.221 27.857 47.747h-874.378l27.857-47.748 437.177 773.309-55.713-0.001 257.883-456.122c8.698-15.384 28.221-20.805 43.605-12.107s20.805 28.221 12.107 43.605v0zM480 524.8v-194.648c0-17.673 14.327-32 32-32s32 14.327 32 32v194.648c0 17.673-14.327 32-32 32s-32-14.327-32-32v0zM480 204.8v-6.4c0-17.673 14.327-32 32-32s32 14.327 32 32v6.4c0 17.673-14.327 32-32 32s-32-14.327-32-32v0z" />
<glyph unicode="&#xe94c;" glyph-name="tz-group" d="M787.161 186.448c-128.255-137.983-344.044-145.851-482.011-17.56-137.933 128.256-145.801 344.052-17.56 482.020 128.236 137.963 344.027 145.815 482.015 17.556 137.983-128.255 145.851-344.044 17.56-482.011l-0.004-0.005zM834.033 142.871c152.364 163.856 143.019 420.148-20.856 572.469s-420.161 142.995-572.465-20.86c-152.303-163.854-142.957-420.14 20.856-572.461 163.855-152.364 420.147-143.019 572.469 20.856l-0.004-0.005zM899.731 801.713c45.869-51.918-80.121-261.988-295.322-451.955-215.266-190.030-439.287-288.96-485.153-237.004-13.935 15.812-10.779 54.917 15.464 111.592 7.426 16.037 0.446 35.058-15.592 42.484s-35.058 0.446-42.484-15.592c-35.8-77.312-40.901-140.522-5.385-180.82 82.39-93.328 333.135 17.403 575.505 231.36 242.317 213.903 383.337 449.034 300.948 542.289-32.538 36.892-88.616 42.246-159.977 23.041-17.066-4.593-27.177-22.151-22.585-39.217s22.151-27.177 39.217-22.585c50.37 13.556 82.985 10.442 95.365-3.594z" />
<glyph unicode="&#xe94d;" glyph-name="tz-company" d="M252.922 681.6h87.228c15.906 0 28.8 12.894 28.8 28.8s-12.894 28.8-28.8 28.8h-87.228c-15.906 0-28.8-12.894-28.8-28.8s12.894-28.8 28.8-28.8v0zM685.163 681.6h87.228c15.906 0 28.8 12.894 28.8 28.8s-12.894 28.8-28.8 28.8h-87.228c-15.906 0-28.8-12.894-28.8-28.8s12.894-28.8 28.8-28.8v0zM468.521 681.6h87.228c15.906 0 28.8 12.894 28.8 28.8s-12.894 28.8-28.8 28.8h-87.228c-15.906 0-28.8-12.894-28.8-28.8s12.894-28.8 28.8-28.8v0zM252.922 489.6h87.228c15.906 0 28.8 12.894 28.8 28.8s-12.894 28.8-28.8 28.8h-87.228c-15.906 0-28.8-12.894-28.8-28.8s12.894-28.8 28.8-28.8v0zM685.163 489.6h87.228c15.906 0 28.8 12.894 28.8 28.8s-12.894 28.8-28.8 28.8h-87.228c-15.906 0-28.8-12.894-28.8-28.8s12.894-28.8 28.8-28.8v0zM468.521 489.6h87.228c15.906 0 28.8 12.894 28.8 28.8s-12.894 28.8-28.8 28.8h-87.228c-15.906 0-28.8-12.894-28.8-28.8s12.894-28.8 28.8-28.8v0zM252.922 297.6h87.228c15.906 0 28.8 12.894 28.8 28.8s-12.894 28.8-28.8 28.8h-87.228c-15.906 0-28.8-12.894-28.8-28.8s12.894-28.8 28.8-28.8v0zM685.163 297.6h87.228c15.906 0 28.8 12.894 28.8 28.8s-12.894 28.8-28.8 28.8h-87.228c-15.906 0-28.8-12.894-28.8-28.8s12.894-28.8 28.8-28.8v0zM468.521 297.6h87.228c15.906 0 28.8 12.894 28.8 28.8s-12.894 28.8-28.8 28.8h-87.228c-15.906 0-28.8-12.894-28.8-28.8s12.894-28.8 28.8-28.8v0zM678.667 15.292v140.672c0 17.673-14.327 32-32 32h-267.166c-17.673 0-32-14.327-32-32v-142.411l32 32h-276.337l32-32v858.315l-32-32h817.943l-32 32v-858.315l32 32h-274.44v-32h32v1.739zM614.667 15.292v-1.739c0-17.673 14.327-32 32-32h274.44c17.673 0 32 14.327 32 32v858.315c0 17.673-14.327 32-32 32h-817.943c-17.673 0-32-14.327-32-32v-858.315c0-17.673 14.327-32 32-32h276.337c17.673 0 32 14.327 32 32v142.411l-32-32h267.166l-32 32v-140.672z" />
<glyph unicode="&#xe94e;" glyph-name="tz-credit" d="M867.1-11.78h-696.24c-56.52 0-102.48 46.020-102.48 102.48l-4.020 685.38c0 56.7 45.96 102.66 102.48 102.66h50.34c16.56 0 30-13.44 30-30s-13.44-30-30-30h-50.34c-23.4 0-42.48-19.020-42.48-42.48l4.020-685.38c0-23.58 19.020-42.66 42.48-42.66h696.24c23.4 0 42.48 19.080 42.48 42.48l-4.020 685.38c0 23.64-19.080 42.66-42.54 42.66h-51.48c-16.62 0-30 13.44-30 30s13.38 30 30 30h51.48c56.52 0 102.54-45.96 102.54-102.48l4.020-685.38c0-56.64-45.96-102.66-102.48-102.66zM567.76 818.74h-118.14c-16.56 0-30 13.44-30 30s13.44 30 30 30h118.14c16.62 0 30-13.44 30-30s-13.38-30-30-30zM93.4 707.020h843.78v-60h-843.78v60zM330.94 780.76c-16.62 0-30 13.44-30 30v70.62c0 16.56 13.38 30 30 30 16.56 0 30-13.44 30-30v-70.62c0-16.56-13.44-30-30-30zM689.020 780.76c-16.62 0-30 13.44-30 30v70.62c0 16.56 13.38 30 30 30 16.56 0 30-13.44 30-30v-70.62c0-16.56-13.44-30-30-30zM521.207 384h-5.614l-64.562 147.2h-60.631l65.367-147.2h-58.967v-51.2h89.6v-28.8h-89.6v-51.2h89.6v-67.2h64v67.2h89.6v51.2h-89.6v28.8h89.6v51.2h-58.967l65.367 147.2h-60.631l-64.562-147.2z" />
<glyph unicode="&#xe94f;" glyph-name="tz-acceptable" d="M797.345 121.546c-10.463 162.37-32.741 228.715-90.797 294.254-7.367 8.316-7.398 8.35-29.346 31.575l-21.89-20.686v-30.118h1.024v30.118l-29.218 7.305-0.241-0.964 29.218-7.305 23.375 18.992-0.783 0.964-23.375-18.992 18.035-24.121c67.969 50.82 108.821 130.551 108.821 217.054 0 149.573-121.185 270.758-270.758 270.758h-2.048c-149.582 0-270.818-121.194-270.818-270.758 0-86.503 40.852-166.235 108.821-217.054l18.035 24.121-23.375 18.992-0.783-0.964c-81.626-86.334-103.109-138.279-118.501-327.973-0.862-10.623 3.955-20.911 12.666-27.052 15.65-11.033 43.17-26.888 80.405-42.597 151.9-64.086 315.748-62.821 469.128 48.109 8.387 6.065 13.071 16.012 12.405 26.341v0zM737.234 117.672l12.405 26.341c-134.043-96.945-276.202-98.042-410.414-41.419-19.272 8.131-36.572 16.826-51.59 25.478-8.807 5.074-14.748 8.896-17.522 10.851l12.666-27.052c14.327 176.559 30.456 215.559 103.737 293.176l2.259 2.648c10.789 13.279 8.363 32.867-5.34 43.113-52.919 39.567-84.655 101.507-84.655 168.813 0 116.292 94.263 210.522 210.583 210.522h2.048c116.306 0 210.522-94.217 210.522-210.522 0-67.305-31.736-129.246-84.655-168.813-13.703-10.245-16.129-29.834-5.34-43.113l0.783-0.964c15.65-19.262 46.574-12.39 52.593 11.687l0.241 0.964c4.752 19.009-9.625 37.422-29.218 37.422h-1.024c-26.423 0-40.038-31.599-21.89-50.804 21.26-22.497 21.316-22.558 28.037-30.144 48.015-54.203 66.101-108.067 75.775-258.186v0zM678.598 357.21c18.948-22.609 55.802-55.003 111.348-86.983 50.060-28.821 107.078-51.661 171.132-66.33 16.214-3.713 32.368 6.421 36.081 22.635s-6.421 32.368-22.635 36.081c-58.075 13.299-109.524 33.909-154.524 59.816-28.695 16.52-52.981 34.152-72.917 51.676-11.645 10.235-19.066 17.915-22.318 21.795-10.684 12.749-29.68 14.422-42.428 3.738s-14.422-29.68-3.738-42.428v0zM298.754 395.9c-3.252-3.88-10.674-11.56-22.318-21.795-19.937-17.524-44.223-35.156-72.917-51.676-44.999-25.907-96.449-46.517-154.523-59.816-16.214-3.713-26.348-19.867-22.635-36.081s19.867-26.348 36.081-22.635c64.054 14.668 121.071 37.508 171.132 66.33 55.546 31.979 92.4 64.373 111.348 86.983 10.684 12.749 9.010 31.744-3.738 42.428s-31.744 9.010-42.428-3.738v0zM562.35 565.638c-6.194-26.045-25.019-38.368-54.784-38.368-29.292 0-52.083 15.902-54.346 35.865-1.311 11.569-11.753 19.885-23.323 18.574s-19.885-11.753-18.574-23.323c4.956-43.722 47.32-73.281 96.242-73.281 47.944 0 84.694 24.056 95.805 70.778 2.694 11.328-4.305 22.694-15.633 25.388s-22.694-4.305-25.388-15.633v0zM441.224 658.824c0-14.97-12.136-27.106-27.106-27.106s-27.106 12.136-27.106 27.106c0 14.97 12.136 27.106 27.106 27.106s27.106-12.136 27.106-27.106zM621.929 658.824c0-14.97-12.136-27.106-27.106-27.106s-27.106 12.136-27.106 27.106c0 14.97 12.136 27.106 27.106 27.106s27.106-12.136 27.106-27.106z" />
<glyph unicode="&#xe950;" glyph-name="tz-money" d="M726.848 896h105.152l-263.529-466.045h225.882v-73.996h-237.566v-97.363h237.566v-75.294h-237.566v-219.391h-90.872v219.391h-234.97v75.294h234.97v97.363h-234.97v73.996h223.286l-262.231 466.045h106.45l212.901-381.663 215.497 381.663z" />
<glyph unicode="&#xe951;" glyph-name="tz-more" d="M256 448c0-35.346-28.654-64-64-64s-64 28.654-64 64c0 35.346 28.654 64 64 64s64-28.654 64-64zM576 448c0-35.346-28.654-64-64-64s-64 28.654-64 64c0 35.346 28.654 64 64 64s64-28.654 64-64zM896 448c0-35.346-28.654-64-64-64s-64 28.654-64 64c0 35.346 28.654 64 64 64s64-28.654 64-64z" />
<glyph unicode="&#xe952;" glyph-name="tz-copy" d="M288 704h640l-32 32v-704l32 32h-640l32-32v704l-32-32zM288 768c-17.673 0-32-14.327-32-32v-704c0-17.673 14.327-32 32-32h640c17.673 0 32 14.327 32 32v704c0 17.673-14.327 32-32 32h-640zM704 896h-608c-17.673 0-32-14.327-32-32v-704c0-17.673 14.327-32 32-32h192c17.673 0 32 14.327 32 32s-14.327 32-32 32h-192l32-32v704l-32-32h608c17.673 0 32 14.327 32 32s-14.327 32-32 32v0z" />
</font>
</defs>
</svg>
